<svg xmlns="http://www.w3.org/2000/svg" xmlns:xlink="http://www.w3.org/1999/xlink">
  <defs>
    <symbol fill="none" viewBox="0 0 59 55" id="__bullet__">
      <g opacity=".75" fill="#fff">
        <path d="M44.585 49.97l9.084-10.45 2.82 1.675c.816.485.994 1.59.372 2.306l-7.953 9.149c-.635.73-1.78.69-2.363-.082l-1.96-2.598zM17.821 26.395l8.849-10.18L52.511 38.68l-8.849 10.18zM25.439 15.06l-8.892 10.23-2.648-3.677 7.53-8.662 4.01 2.11zM6.458 8.22a.593.593 0 0 1 .717-.824l13.011 4.24a.474.474 0 0 1 .211.763l-7.144 8.218a.474.474 0 0 1-.784-.103L6.459 8.22z" />
      </g>
      <g opacity=".75" fill="#fff">
        <path d="M45.058 48.832l9.083-10.449 2.82 1.674c.817.485.995 1.59.372 2.307l-7.952 9.148c-.635.73-1.78.69-2.363-.082l-1.96-2.598zM18.294 25.257l8.849-10.18 25.84 22.464-8.848 10.18zM25.911 13.923L17.02 24.152l-2.647-3.676 7.53-8.663 4.01 2.11zM6.931 7.082a.593.593 0 0 1 .716-.824L20.66 10.5a.474.474 0 0 1 .21.762l-7.143 8.218a.474.474 0 0 1-.785-.102L6.931 7.082z" />
      </g>
    </symbol>
  </defs>
  <use href="#__bullet__"/>
</svg>