<svg xmlns="http://www.w3.org/2000/svg" xmlns:xlink="http://www.w3.org/1999/xlink">
  <defs>
    <symbol fill="none" viewBox="0 0 14 12" id="__chat__">
      <path d="M2.154.687h9.961c.876 0 1.885.778 1.885 1.529v6.037c0 .69-.855 1.19-1.674 1.267l.533 2.025-3.418-2.01H2.154c-.877 0-1.686-.532-1.686-1.282V2.216c0-.75.81-1.53 1.686-1.53zm8.441 5.096a.9.9 0 1 0 0-1.8.9.9 0 0 0 0 1.8zm-3.36 0a.9.9 0 1 0 0-1.8.9.9 0 0 0 0 1.8zm-3.362 0a.9.9 0 1 0 0-1.8.9.9 0 0 0 0 1.8z" fill="#fff" />
    </symbol>
  </defs>
  <use href="#__chat__"/>
</svg>