<svg xmlns="http://www.w3.org/2000/svg" xmlns:xlink="http://www.w3.org/1999/xlink">
  <defs>
    <symbol fill="none" viewBox="0 0 42 42" id="__check__">
      <g clip-path="url(#__check___clip0)">
        <path d="M21 42c11.598 0 21-9.402 21-21S32.598 0 21 0 0 9.402 0 21s9.402 21 21 21z" fill="#4AD2A1" />
        <path d="M42 21c0 11.55-9.45 21-21 21-6.694 0-12.6-3.019-16.406-7.875 3.543 2.888 8.137 4.594 13.125 4.594 11.55 0 21-9.45 21-21 0-4.988-1.707-9.582-4.594-13.125C38.98 8.4 42 14.306 42 21z" fill="#0DC683" />
        <path d="M32.413 16.777l-13.65 14.962a2.242 2.242 0 0 1-3.413 0l-5.775-6.43a2.428 2.428 0 0 1 .131-3.282 2.428 2.428 0 0 1 3.282.131l4.068 4.594L29 13.758c.919-.919 2.363-1.05 3.282-.131.918.787.918 2.362.13 3.15z" fill="#030303" fill-opacity=".25" />
        <path d="M32.419 14.963l-13.65 14.962a2.242 2.242 0 0 1-3.413 0l-5.775-6.431a2.428 2.428 0 0 1 .131-3.282 2.428 2.428 0 0 1 3.282.132l4.069 4.593 11.943-12.993c.92-.919 2.363-1.05 3.282-.132.918.788.918 2.363.13 3.15z" fill="#fff" />
      </g>
      <defs></defs>
    </symbol>
    <clipPath id="__check___clip0">
      <path fill="#fff" d="M0 0h42v42H0z" />
    </clipPath>
  </defs>
  <use href="#__check__"/>
</svg>