<svg xmlns="http://www.w3.org/2000/svg" xmlns:xlink="http://www.w3.org/1999/xlink">
  <defs>
    <symbol fill="none" viewBox="0 0 36 36" id="__claim__">
      <path d="M18 2C9.164 2 2 9.388 2 18.5S9.164 35 18 35s16-7.388 16-16.5S26.836 2 18 2zm5.146 16.754l-7.8 5.852a.28.28 0 0 1-.41-.085.3.3 0 0 1-.043-.154V12.67a.3.3 0 0 1 .155-.264.279.279 0 0 1 .298.024l7.8 5.849a.29.29 0 0 1 .12.238.299.299 0 0 1-.12.237z" fill="#000" fill-opacity=".5" />
      <path d="M15.83 24.435l-.004.003a1.032 1.032 0 0 1-1.635-.836V12.435h.75l.888 12zm0 0l7.674-5.584m-7.675 5.584l7.675-5.584m0 0a1.027 1.027 0 0 0 0-1.67v1.67zM3 18C3 9.717 9.717 3 18 3c8.283 0 15 6.717 15 15 0 8.283-6.717 15-15 15-8.283 0-15-6.717-15-15z" fill="#fff" stroke="#000" stroke-width="1.5" />
    </symbol>
  </defs>
  <use href="#__claim__"/>
</svg>