<svg xmlns="http://www.w3.org/2000/svg" xmlns:xlink="http://www.w3.org/1999/xlink">
  <defs>
    <symbol fill="none" viewBox="0 0 43 31" id="__discord__">
      <g clip-path="url(#__discord___clip0)" fill-rule="evenodd" clip-rule="evenodd">
        <path d="M31.075 29.135s-1.214-1.45-2.225-2.731c4.416-1.248 6.102-4.012 6.102-4.012a19.273 19.273 0 0 1-3.877 1.989c-1.686.708-3.304 1.18-4.889 1.45-3.236.606-6.203.438-8.732-.034a28.329 28.329 0 0 1-4.956-1.45 19.782 19.782 0 0 1-2.461-1.146c-.1-.068-.202-.101-.303-.169a.464.464 0 0 1-.135-.1 11.843 11.843 0 0 1-.944-.574s1.618 2.697 5.9 3.978c-1.011 1.282-2.259 2.798-2.259 2.798-7.451-.236-10.283-5.124-10.283-5.124 0-10.856 4.855-19.656 4.855-19.656 4.855-3.64 9.474-3.54 9.474-3.54l.337.405C10.61 2.972 7.812 5.636 7.812 5.636s.742-.405 1.989-.978c3.608-1.585 6.473-2.023 7.653-2.124.203-.034.371-.068.574-.068a28.527 28.527 0 0 1 6.81-.067 27.482 27.482 0 0 1 10.148 3.237s-2.664-2.529-8.395-4.282l.472-.54s4.619-.1 9.474 3.54c0 0 4.855 8.8 4.855 19.656 0 0-2.866 4.889-10.317 5.125zM11.959 17.132c0-2.056 1.517-3.742 3.439-3.742 1.921 0 3.472 1.686 3.439 3.742 0 2.057-1.517 3.742-3.44 3.742-1.887 0-3.438-1.685-3.438-3.742zm12.306 0c0-2.056 1.517-3.742 3.439-3.742 1.921 0 3.438 1.686 3.438 3.742 0 2.057-1.517 3.742-3.438 3.742-1.888 0-3.44-1.685-3.44-3.742z" fill="#39456D" />
        <path d="M31.075 30.134s-1.214-1.45-2.225-2.73c4.416-1.248 6.102-4.013 6.102-4.013a19.266 19.266 0 0 1-3.877 1.99c-1.686.708-3.304 1.18-4.889 1.45-3.236.606-6.203.438-8.732-.034a28.333 28.333 0 0 1-4.956-1.45 19.784 19.784 0 0 1-2.461-1.146c-.101-.068-.202-.102-.303-.17a.468.468 0 0 1-.135-.1 11.846 11.846 0 0 1-.944-.573s1.618 2.697 5.9 3.978c-1.011 1.281-2.259 2.798-2.259 2.798-7.451-.236-10.283-5.124-10.283-5.124 0-10.856 4.855-19.656 4.855-19.656 4.855-3.64 9.474-3.54 9.474-3.54l.337.405C10.61 3.972 7.812 6.635 7.812 6.635s.742-.404 1.989-.977c3.607-1.585 6.473-2.023 7.653-2.124.203-.034.371-.068.573-.068a28.527 28.527 0 0 1 6.81-.067 27.483 27.483 0 0 1 10.149 3.236s-2.664-2.528-8.395-4.281l.472-.54s4.619-.1 9.473 3.54c0 0 4.855 8.8 4.855 19.656 0 0-2.865 4.888-10.316 5.124zM11.959 18.133c0-2.057 1.517-3.742 3.439-3.742 1.921 0 3.472 1.685 3.439 3.742 0 2.057-1.517 3.742-3.44 3.742-1.887 0-3.438-1.685-3.438-3.742zm12.306 0c0-2.057 1.517-3.742 3.438-3.742 1.922 0 3.44 1.685 3.44 3.742s-1.518 3.742-3.44 3.742c-1.887 0-3.438-1.685-3.438-3.742z" fill="#fff" />
      </g>
      <defs></defs>
    </symbol>
    <clipPath id="__discord___clip0">
      <path fill="#fff" d="M0 0h43v31H0z" />
    </clipPath>
  </defs>
  <use href="#__discord__"/>
</svg>