<svg xmlns="http://www.w3.org/2000/svg" xmlns:xlink="http://www.w3.org/1999/xlink">
  <defs>
    <symbol fill="none" viewBox="0 0 25 26" id="__edit__">
      <g clip-path="url(#__edit___clip0)">
        <path d="M5.897 18.962l-.717 5.8a1.43 1.43 0 0 0 1.563 1.582c.1 0 .2-.01.297-.031l5.56-1.911 9.794-12.048-6.745-5.45-9.752 12.058zM25.26 6.535L20.757 2.89a1.438 1.438 0 0 0-2.017.212l-2.027 2.503 6.74 5.458 2.027-2.504a1.436 1.436 0 0 0-.22-2.023z" fill="#202639" />
        <path d="M3.372 17.616l-.717 5.802a1.43 1.43 0 0 0 1.562 1.581c.1 0 .2-.01.297-.031l5.56-1.911 9.795-12.048-6.746-5.45-9.751 12.057zM22.734 5.19l-4.503-3.646a1.437 1.437 0 0 0-2.016.212l-2.028 2.503 6.74 5.457 2.027-2.503a1.44 1.44 0 0 0-.22-2.023z" fill="#FFB914" />
      </g>
      <defs></defs>
    </symbol>
    <clipPath id="__edit___clip0">
      <path fill="#fff" transform="translate(0 .5)" d="M0 0h25v25H0z" />
    </clipPath>
  </defs>
  <use href="#__edit__"/>
</svg>