<svg xmlns="http://www.w3.org/2000/svg" xmlns:xlink="http://www.w3.org/1999/xlink">
  <defs>
    <symbol fill="none" viewBox="0 0 19 15" id="__gun__">
      <path d="M5.459 1.66l7.176 3.706 1.503-1.133.11 1.58 1.888 2.228 2.152.595c-.7 2.257-1.344 3.41-2.775 5.336-.691-.224-1.078-.352-1.456-1.075-.041-1.145-.12-1.784-.524-2.916-.703-.367-1.06-.509-1.676-.73-.22 1.151-.146 1.772.068 2.868l-2.334-.614.182-1.734-.428-.322-.446-.14c-.892 1.6-1.722 2.257-3.176 3.408l-.046.037-2.585-3.5c1.879-.752 2.823-1.282 3.813-2.922-1.267-.805-2.027-1.225-3.588-1.853.184-.165.234-.257.24-.528-.87-.548-1.382-.845-2.54-1.282.35-.666.54-1.024.739-1.768 1.037.605 1.63.897 2.723 1.302.315-.66.49-1.03.648-1.778.317-.024.47.042.711.26-.238.401-.307.61-.38.975z" fill="#fff" fill-opacity=".9" opacity=".7" />
    </symbol>
  </defs>
  <use href="#__gun__"/>
</svg>