<svg xmlns="http://www.w3.org/2000/svg" xmlns:xlink="http://www.w3.org/1999/xlink">
  <defs>
    <symbol fill="none" viewBox="0 0 26 25" id="__home__">
      <path d="M25.462 11.84L13.649.264A.918.918 0 0 0 13 0a.931.931 0 0 0-.649.264L.54 11.84c-.344.337-.539.796-.539 1.274 0 .993.823 1.8 1.835 1.8H3.08v8.26c0 .498.41.9.918.9h7.167v-6.3h3.212v6.3h7.626a.908.908 0 0 0 .918-.9v-8.26h1.245c.487 0 .955-.189 1.299-.529a1.777 1.777 0 0 0-.003-2.545z" fill="#fff" />
    </symbol>
  </defs>
  <use href="#__home__"/>
</svg>