<svg xmlns="http://www.w3.org/2000/svg" xmlns:xlink="http://www.w3.org/1999/xlink">
  <defs>
    <symbol viewBox="0 0 512.015 512.015" id="__hub__">
      <script></script>
      <g fill="#fff">
        <path d="M132.482 251.015h11.53c21.57 0 39.64 15.26 44 35.54 4.36-20.28 22.43-35.54 44-35.54h48c21.57 0 39.64 15.26 44 35.54 4.36-20.28 22.43-35.54 44-35.54h11.53l-101.488-149.25 64.666-32.333c10.949-5.474 11.088-21.151.134-26.766l-80-41c-9.963-5.103-21.842 2.133-21.842 13.349v76.394zM256.012 431.015c-13.79 0-25 11.21-25 25v56h50v-56c0-13.79-11.21-25-25-25z" data-original="#000000" />
        <path d="M416.012 281.015h-48c-8.28 0-15 6.72-15 15v41h-58v-41c0-8.28-6.72-15-15-15h-48c-8.28 0-15 6.72-15 15v41h-58v-41c0-8.28-6.72-15-15-15h-48c-8.28 0-15 6.72-15 15 0 87.555-.154 80.978.36 83.25l15.64 70.4v47.35c0 8.28 6.72 15 15 15h89v-56c0-30.33 24.67-55 55-55s55 24.67 55 55v56h89c8.28 0 15-6.72 15-15v-47.35l15.64-70.4c.514-2.274.36 4.357.36-83.25 0-8.28-6.72-15-15-15zM175.012 80.015c0-24.335-18.591-44.411-42.316-46.769-2.233-6.923-6.038-13.323-11.229-18.738-18.535-19.336-48.369-19.341-66.908 0-5.19 5.414-8.994 11.811-11.228 18.733-10.762 1.046-20.859 5.683-28.825 13.319-19.336 18.537-19.339 48.369 0 66.909 9.112 8.735 21.012 13.545 33.507 13.545h80c25.915.001 46.999-21.083 46.999-46.999zM468.633 97.236c-6.209-18.697-23.865-32.221-44.62-32.221-20.756 0-38.413 13.526-44.622 32.226-23.754 2.33-42.378 22.418-42.378 46.774 0 25.916 21.084 47 47 47h80c26.022 0 48-21.056 48-47-.001-24.596-19.657-44.506-43.38-46.779z" data-original="#000000" />
      </g>
    </symbol>
  </defs>
  <use href="#__hub__"/>
</svg>