<svg xmlns="http://www.w3.org/2000/svg" xmlns:xlink="http://www.w3.org/1999/xlink">
  <defs>
    <symbol viewBox="0 0 59 59" id="__position__">
      <g clip-path="url(#__position___clip0)">
        <path d="M51.053 27.95l-12.317-.314.103 4.01 12.317.314-4.664 4.664 2.92 2.92 9.392-9.393-9.884-9.884-2.775 2.775 4.908 4.908zM31.174 20.074l-.32-12.323 4.907 4.908 2.775-2.775L28.652 0 19.26 9.392l2.92 2.92 4.664-4.663.314 12.317 4.015.108zM27.637 38.736l.314 12.317-4.908-4.908-2.775 2.775 9.884 9.884 9.392-9.392-2.92-2.92-4.664 4.664-.308-12.323-4.015-.097zM12.313 22.18l-2.92-2.92L0 28.652l9.884 9.884 2.775-2.775-4.908-4.908 12.323.32-.102-4.02-12.323-.31 4.664-4.663z" />
      </g>
      <defs></defs>
    </symbol>
    <clipPath id="__position___clip0">
      <path fill="#fff" transform="rotate(-45 34.586 14.326)" d="M0 0h40.521v42.641H0z" />
    </clipPath>
  </defs>
  <use href="#__position__"/>
</svg>