<svg xmlns="http://www.w3.org/2000/svg" xmlns:xlink="http://www.w3.org/1999/xlink">
  <defs>
    <symbol viewBox="-194 -104 1000 1000" id="__reddit__">
      <path d="M770.315 354.58c0-56.424-45.79-102.217-102.221-102.217-27.8 0-52.333 10.631-70.326 28.62-69.505-49.884-166.004-82.594-272.308-86.681l46.612-218.34L523.356 7.857c1.634 38.432 33.527 69.508 72.78 69.508 40.069 0 72.779-32.71 72.779-72.78 0-40.069-32.71-72.779-72.779-72.779-28.625 0-53.155 16.355-64.603 40.888L362.26-63.29c-4.907-.818-9.812 0-13.901 2.453s-6.544 6.543-8.18 11.45l-51.517 243.689c-108.761 3.27-206.072 35.163-276.398 86.68-17.993-17.174-43.345-28.62-70.329-28.62-56.424 0-102.218 45.794-102.218 102.217 0 41.706 24.533 76.869 60.514 93.224-1.636 9.812-2.453 20.444-2.453 31.073 0 157.006 182.356 283.759 408.057 283.759 225.697 0 408.055-126.753 408.055-283.76 0-10.628-.815-20.443-2.452-30.257 33.525-16.352 58.876-52.333 58.876-94.037zM71.14 427.36c0-40.07 32.71-72.78 72.779-72.78 40.07 0 72.778 32.71 72.778 72.78 0 40.067-32.71 72.779-72.778 72.779-40.069 0-72.779-32.712-72.779-72.78zm406.42 192.17c-49.88 49.886-144.741 53.156-172.546 53.156-27.802 0-123.478-4.09-172.544-53.156-7.36-7.36-7.36-19.624 0-26.984 7.363-7.36 19.628-7.36 26.986 0 31.075 31.074 98.13 42.523 146.379 42.523 48.244 0 114.486-11.45 146.375-42.523 7.36-7.36 19.629-7.36 26.988 0 5.72 8.175 5.72 19.625-1.637 26.984zM464.477 500.14c-40.07 0-72.78-32.712-72.78-72.78s32.71-72.778 72.78-72.778c40.073 0 72.784 32.71 72.784 72.778 0 40.068-32.711 72.78-72.784 72.78z" stroke-width="1.398" />
    </symbol>
  </defs>
  <use href="#__reddit__"/>
</svg>