<svg xmlns="http://www.w3.org/2000/svg" xmlns:xlink="http://www.w3.org/1999/xlink">
  <defs>
    <symbol viewBox="0 0 24 24" id="__rotate-device__">
      <path d="M22.432 7.344l-.688-.688-4.401-4.401-.688-.688c-.834-.834-2.288-.737-3.242.216L1.784 13.415c-.953.953-1.05 2.407-.216 3.242l5.776 5.776c.834.834 2.288.737 3.242-.216l11.631-11.631c.953-.954 1.05-2.408.215-3.242zm-1.473 2.298L9.642 20.959c-.347.347-.875.382-1.179.079l-5.501-5.501c-.304-.304-.269-.832.079-1.179L14.358 3.041c.347-.347.875-.382 1.179-.079l.275.275c.304.304.269.832-.079 1.179-.347.347-.382.875-.079 1.179l2.751 2.751c.304.304.832.269 1.179-.079.347-.347.875-.382 1.179-.079l.275.275c.303.304.268.832-.079 1.179zM13.836 24a.836.836 0 0 1-.592-1.427l2.38-2.38a.833.833 0 0 1 1.239.062l.882 1.079c2.697-1.433 4.555-4.265 4.581-7.504a.836.836 0 0 1 .836-.83h.007a.837.837 0 0 1 .83.843c-.043 5.556-4.6 10.113-10.156 10.157h-.007zM10.164 0a.836.836 0 0 1 .592 1.427l-2.38 2.38a.837.837 0 0 1-1.24-.062l-.882-1.079C3.557 4.099 1.699 6.931 1.673 10.17a.837.837 0 0 1-.837.83H.829A.837.837 0 0 1 0 10.157C.044 4.601 4.601.044 10.157 0z" />
    </symbol>
  </defs>
  <use href="#__rotate-device__"/>
</svg>