<svg xmlns="http://www.w3.org/2000/svg" xmlns:xlink="http://www.w3.org/1999/xlink">
  <defs>
    <symbol viewBox="0 0 100 100" id="__server__">
      <g id="__server___g9" transform="translate(0 10.938)">
        <script id="__server___script2"></script>
        <g id="__server___Layer2">
          <path d="M90.553 62.499a9.375 9.375 0 0 0-9.375-9.375H18.87a9.375 9.375 0 0 0-9.375 9.375v15.626A9.375 9.375 0 0 0 18.87 87.5h62.308a9.375 9.375 0 0 0 9.375-9.375zm-63.957 3.125a4.69 4.69 0 0 1 4.688 4.688 4.69 4.69 0 0 1-4.688 4.687 4.689 4.689 0 0 1-4.687-4.687 4.69 4.69 0 0 1 4.687-4.688zm14.029 7.813h33.927a3.126 3.126 0 0 0 0-6.25H40.625a3.126 3.126 0 0 0 0 6.25z" fill="#fff" data-original="#000000" id="__server___path4" />
          <path d="M90.553 21.875a9.375 9.375 0 0 0-9.375-9.375H18.496a9.375 9.375 0 0 0-9.375 9.375v15.698a9.375 9.375 0 0 0 9.375 9.375h62.682a9.375 9.375 0 0 0 9.375-9.375zm-63.957 3.162a4.69 4.69 0 0 1 4.688 4.687 4.69 4.69 0 0 1-4.688 4.688 4.69 4.69 0 0 1-4.687-4.688c0-2.587 2.1-4.687 4.687-4.687zm14.029 7.812h33.927a3.126 3.126 0 0 0 0-6.25H40.625a3.126 3.126 0 0 0 0 6.25z" fill="#fff" data-original="#000000" id="__server___path6" />
        </g>
      </g>
    </symbol>
  </defs>
  <use href="#__server__"/>
</svg>