<svg xmlns="http://www.w3.org/2000/svg" xmlns:xlink="http://www.w3.org/1999/xlink">
  <defs>
    <symbol fill="none" viewBox="0 0 39 41" id="__settings__">
      <path d="M38.518 18.872l-4.36-1.248a14.207 14.207 0 0 0-1.236-2.907l2.134-3.83a.734.734 0 0 0-.143-.9l-3.11-2.994a.823.823 0 0 0-.937-.137L26.897 8.89a15.479 15.479 0 0 0-3.07-1.248l-1.302-4.13a.765.765 0 0 0-.297-.376.818.818 0 0 0-.47-.136h-4.399a.817.817 0 0 0-.47.15.763.763 0 0 0-.285.387l-1.301 4.117a15.495 15.495 0 0 0-3.097 1.248L8.302 6.881a.823.823 0 0 0-.937.137L4.203 9.975a.734.734 0 0 0-.143.898l2.108 3.744a14.194 14.194 0 0 0-1.301 2.957L.56 18.822a.794.794 0 0 0-.404.274.74.74 0 0 0-.156.45v4.218c0 .162.055.32.156.45.1.13.242.225.404.273l4.333 1.248a14.195 14.195 0 0 0 1.301 2.907L4.06 32.56a.734.734 0 0 0 .143.899l3.11 2.982a.823.823 0 0 0 .937.137l4.021-2.059c.951.493 1.954.886 2.993 1.173l1.301 4.206c.05.154.15.29.286.386.136.097.3.15.469.15h4.398a.817.817 0 0 0 .47-.15.763.763 0 0 0 .285-.386l1.301-4.218a15.499 15.499 0 0 0 2.967-1.173l4.047 2.071a.824.824 0 0 0 .937-.137l3.11-2.982a.734.734 0 0 0 .143-.898l-2.16-3.869c.517-.907.932-1.865 1.236-2.857l4.386-1.248a.794.794 0 0 0 .403-.274c.1-.13.155-.288.156-.45v-4.255a.737.737 0 0 0-.12-.44.786.786 0 0 0-.361-.296zm-18.96 9.708c-1.415 0-2.8-.402-3.976-1.157a6.934 6.934 0 0 1-2.636-3.08 6.602 6.602 0 0 1-.407-3.965 6.78 6.78 0 0 1 1.958-3.514c1.001-.96 2.276-1.613 3.665-1.878a7.443 7.443 0 0 1 4.135.39 7.102 7.102 0 0 1 3.212 2.528 6.664 6.664 0 0 1 1.206 3.813c0 1.82-.754 3.566-2.096 4.853a7.316 7.316 0 0 1-5.06 2.01z" fill="#000" fill-opacity=".25" />
      <path d="M33.919 14.696l.039.131.132.038 4.344 1.243c.099.043.18.112.236.197.057.088.084.19.08.291h0V20.862s0 0 0 0c-.002.107-.037.21-.105.298a.544.544 0 0 1-.275.187h-.001l-4.383 1.247-.13.037-.04.13c-.3.975-.707 1.916-1.215 2.808l-.07.122.069.123 2.16 3.867s0 0 0 0a.484.484 0 0 1-.097.596l-.001.001-3.11 2.983h-.001a.573.573 0 0 1-.65.094l-4.046-2.07-.115-.06-.114.06c-.928.483-1.906.87-2.92 1.154l-.13.037-.04.13-1.301 4.215v.001a.512.512 0 0 1-.193.258.566.566 0 0 1-.325.104h-4.396a.566.566 0 0 1-.325-.103.512.512 0 0 1-.192-.259v-.001l-1.301-4.203-.04-.13-.132-.036a15.284 15.284 0 0 1-2.945-1.155l-.114-.059-.115.059-4.02 2.058a.573.573 0 0 1-.65-.093v-.001l-3.11-2.983h-.002a.484.484 0 0 1-.096-.596v-.002l2.135-3.918.067-.125-.072-.122a13.94 13.94 0 0 1-1.278-2.856l-.04-.127-.129-.037-4.331-1.248H.63a.544.544 0 0 1-.276-.187.49.49 0 0 1-.104-.297v-4.216a.49.49 0 0 1 .104-.298.544.544 0 0 1 .276-.187s0 0 0 0l4.306-1.247.13-.038.04-.129c.312-1.01.741-1.985 1.278-2.905l.072-.124-.07-.124-2.107-3.742v-.001a.484.484 0 0 1 .096-.595s0 0 0 0L7.536 4.2h0l.003-.003a.574.574 0 0 1 .649-.094s0 0 0 0l3.903 2.02.117.06.116-.061a15.243 15.243 0 0 1 3.047-1.228l.13-.037.04-.128L16.842.613s0 0 0 0a.513.513 0 0 1 .193-.26.566.566 0 0 1 .325-.103h4.397v0h.006a.568.568 0 0 1 .326.094c.094.062.163.15.2.248l1.299 4.125.04.128.13.037c1.05.301 2.064.713 3.02 1.228l.117.062.116-.06L30.98 4.08s0 0 0 0a.573.573 0 0 1 .649.094h0l3.11 2.995.002.001a.484.484 0 0 1 .097.595v.001l-2.134 3.83-.068.123.068.122c.512.907.919 1.865 1.215 2.856zm-18.472 9.938a7.627 7.627 0 0 0 4.111 1.196 7.566 7.566 0 0 0 5.234-2.08c1.39-1.333 2.173-3.143 2.173-5.033 0-1.41-.436-2.786-1.251-3.956a7.35 7.35 0 0 0-3.325-2.617 7.693 7.693 0 0 0-4.274-.403 7.507 7.507 0 0 0-3.79 1.943 7.031 7.031 0 0 0-2.031 3.643 6.852 6.852 0 0 0 .422 4.115 7.184 7.184 0 0 0 2.731 3.192z" fill="#fff" stroke="#333" stroke-width=".5" />
    </symbol>
  </defs>
  <use href="#__settings__"/>
</svg>