<svg xmlns="http://www.w3.org/2000/svg" xmlns:xlink="http://www.w3.org/1999/xlink">
  <defs>
    <symbol fill="none" viewBox="0 0 16 16" id="__tech__">
      <path d="M10.707 8.727l3.753 3.726-2.213 2.187-3.727-3.726V10.3l1.573-1.573h.614zm.606-1.687l-.646-.64-3.194 3.2v1.314L3.72 14.667l-2.187-2.213L5.26 8.726h1.313l.52-.52-2.56-2.567h-.866L1.793 3.747 3.54 2l1.867 1.867v.873L8 7.3l1.773-1.773-.64-.673L10 3.98H8.227l-.434-.433L10 1.333l.44.44v1.774l.873-.88L13.5 4.854a1.887 1.887 0 0 1 0 2.653l-1.313-1.34-.874.873z" fill="#fff" />
    </symbol>
  </defs>
  <use href="#__tech__"/>
</svg>