<svg xmlns="http://www.w3.org/2000/svg" xmlns:xlink="http://www.w3.org/1999/xlink">
  <defs>
    <symbol fill="none" viewBox="0 0 38 39" id="__warn__">
      <g clip-path="url(#__warn___clip0)">
        <path d="M19 38.5c10.494 0 19-8.506 19-19 0-10.493-8.506-19-19-19C8.507.5 0 9.007 0 19.5c0 10.494 8.507 19 19 19z" fill="#E24C4B" />
        <path d="M38 19.5c0 10.45-8.55 19-19 19-6.056 0-11.4-2.731-14.844-7.125 3.207 2.612 7.363 4.156 11.875 4.156 10.45 0 19-8.55 19-19 0-4.512-1.544-8.668-4.156-11.875C35.269 8.1 38 13.444 38 19.5z" fill="#D1403F" />
        <path d="M27.872 29.872c-.713.712-1.9.712-2.613 0l-6.056-6.056-6.056 6.056c-.713.712-1.9.712-2.613 0a1.864 1.864 0 0 1 0-2.613l6.057-6.056-6.057-6.056a1.864 1.864 0 0 1 0-2.613 1.864 1.864 0 0 1 2.613 0l6.056 6.057 6.056-6.057a1.864 1.864 0 0 1 2.613 0c.712.713.712 1.9 0 2.613l-6.056 6.056 6.056 6.056c.712.713.712 1.9 0 2.613z" fill="#000" fill-opacity=".25" />
        <path d="M27.669 28.169c-.713.712-1.9.712-2.613 0L19 22.113l-6.056 6.056c-.713.712-1.9.712-2.613 0a1.864 1.864 0 0 1 0-2.613l6.056-6.056-6.056-6.056a1.864 1.864 0 0 1 0-2.613 1.864 1.864 0 0 1 2.613 0L19 16.887l6.056-6.056a1.864 1.864 0 0 1 2.613 0c.712.713.712 1.9 0 2.613L21.613 19.5l6.056 6.056c.712.713.712 1.9 0 2.613z" fill="#fff" />
      </g>
      <defs></defs>
    </symbol>
    <clipPath id="__warn___clip0">
      <path fill="#fff" transform="translate(0 .5)" d="M0 0h38v38H0z" />
    </clipPath>
  </defs>
  <use href="#__warn__"/>
</svg>