<svg xmlns="http://www.w3.org/2000/svg" xmlns:xlink="http://www.w3.org/1999/xlink">
  <defs>
    <symbol viewBox="0 0 700 700" id="__wrench__">
      <path d="M637.238 307.095c34.5-34.5 51.194-80.038 50.09-125.243-.496-20.32-16.451-24.765-30.82-10.395l-43.81 43.819c-41.675 41.675-84.098 41.675-125.768 0-41.675-41.679-41.675-84.093 0-125.784l43.81-43.81c14.37-14.365 9.92-30.328-10.395-30.814-45.195-1.09-90.753 15.6-125.228 50.074-48.224 48.225-61.473 117.978-40.17 178.224L63.626 534.502c-28.454 28.454-28.454 66.95 0 95.414l8.665 8.674c28.454 28.47 66.954 28.47 95.418 0l291.31-291.323c60.254 21.306 130.008 8.035 178.212-40.17zM95.987 606.213c-13.17-13.175-13.17-34.53 0-47.705 13.18-13.18 34.52-13.17 47.704.005 13.175 13.175 13.18 34.52 0 47.695-13.164 13.19-34.524 13.19-47.704.005z" />
    </symbol>
  </defs>
  <use href="#__wrench__"/>
</svg>