<?xml version="1.0" encoding="utf-8" ?>
<svg xmlns="http://www.w3.org/2000/svg" xmlns:xlink="http://www.w3.org/1999/xlink" width="128" height="128">
	<path fill="#FEE033" d="M33.3998 88.6893C34.3366 90.6767 35.3328 93.1482 36.8041 94.8067C41.3315 101.222 47.573 104.795 55.0271 106.888C55.516 108.659 55.822 110.349 55.7364 112.201C51.008 110.353 46.5749 108.588 42.6172 105.304C37.6573 101.189 34.0049 95.1669 33.3998 88.6893Z"/>
	<defs>
		<linearGradient id="gradient_0" gradientUnits="userSpaceOnUse" x1="99.110527" y1="96.366516" x2="84.556976" y2="80.714577">
			<stop offset="0" stop-color="#F69509"/>
			<stop offset="1" stop-color="#FBBE1D"/>
		</linearGradient>
	</defs>
	<path fill="url(#gradient_0)" d="M55.0271 106.888Q56.1213 107.086 57.2206 107.253C66.6724 108.646 76.6205 106.554 84.3296 100.821C92.1376 95.0141 94.5307 89.2888 95.9056 80.0224C96.3 80.2302 96.7801 80.504 97.225 80.5598C98.2742 80.6914 99.7596 80.3089 100.806 80.1273C106.756 79.0945 112.351 77.0024 117.116 73.2131C121.468 69.7524 125.305 64.2551 125.954 58.6181C126.029 67.4538 125.752 71.9263 119.182 78.6187C113.136 84.777 104.646 87.6811 96.2146 88.5246C93.1532 97.9391 88.723 104.452 79.6955 109.05C77.0916 110.376 74.0765 111.727 71.2285 112.375C68.9366 112.896 58.3699 113.184 56.2177 112.438C56.0398 112.377 55.8873 112.314 55.7364 112.201C55.822 110.349 55.516 108.659 55.0271 106.888Z"/>
	<path fill="#FFF394" d="M44.0981 16.2802C52.0953 13.7739 63.3259 15.7131 70.6756 19.5615C76.6613 22.6956 81.434 27.414 83.728 33.8389C94.207 31.2854 104.621 32.0571 114.017 37.7685C119.239 40.9431 124.018 46.1036 125.48 52.1811C125.99 54.2986 125.972 56.4538 125.954 58.6181C125.305 64.2551 121.468 69.7524 117.116 73.2131C112.351 77.0024 106.756 79.0945 100.806 80.1273C99.7596 80.3089 98.2742 80.6914 97.225 80.5598C96.7801 80.504 96.3 80.2302 95.9056 80.0224C94.5307 89.2888 92.1376 95.0141 84.3296 100.821C76.6205 106.554 66.6724 108.646 57.2206 107.253Q56.1213 107.086 55.0271 106.888C47.573 104.795 41.3315 101.222 36.8041 94.8067C35.3328 93.1482 34.3366 90.6767 33.3998 88.6893C32.2083 86.139 32.3882 80.7315 32.6794 77.9711C32.009 77.5551 29.5135 77.6014 28.6404 77.5369C26.189 77.2334 23.6566 76.6523 21.3142 75.8676C16.6418 74.5357 11.7764 71.5373 8.35886 68.0982C3.21864 62.9256 1.99169 58.7965 2.01763 51.6319C2.0288 48.5737 1.94788 45.4824 2.20345 42.4334C2.17408 41.2196 2.44045 39.9509 2.87618 38.8255C5.46301 32.1444 11.7536 27.5089 18.0993 24.722C20.2345 23.9389 22.382 23.2444 24.6118 22.7807C26.8155 22.3225 29.1465 22.0632 31.2905 21.3663C33.3474 20.6977 35.2848 19.476 37.2486 18.5643C39.46 17.5377 41.7468 16.9025 44.0981 16.2802Z"/>
	<path fill="#FD940E" d="M91.3426 65.0871C91.7323 64.7598 92.1338 64.4135 92.5648 64.1416C93.4138 63.6061 94.7875 64.0912 95.7101 64.3024C94.9149 66.1928 95.1791 68.3153 94.5053 70.1526C93.3629 69.4409 92.1212 66.3729 91.3426 65.0871Z"/>
	<path fill="#FFEB87" d="M38.8438 93.7528C42.974 98.4724 46.9227 101.126 52.7372 103.435L52.096 104.015C51.6906 104.067 51.5724 104.13 51.2058 103.929L51.8974 103.63C50.6344 102.804 49.1336 102.492 47.6763 102.203L47.7626 102.287C46.0173 102.282 44.338 100.685 43.0075 99.7054C41.9347 98.3842 40.5197 97.3601 39.5174 95.9584C38.9579 95.1759 38.6923 94.6955 38.8438 93.7528Z"/>
	<path fill="#FD940E" d="M77.2211 54.9231C80.2618 52.2859 82.3235 48.8744 83.8181 45.1794C84.3349 46.1616 84.5606 47.6687 85.4799 48.1859C84.9136 48.3513 84.6092 48.3575 84.3069 48.9073C84.1426 49.2061 84.085 49.628 84.0206 49.9597C83.9876 50.3339 84.0008 50.8523 83.831 51.1856C83.5477 52.0121 83.3652 52.6884 83.3842 53.5674C82.537 54.5212 82.1047 55.5394 81.6038 56.6969C80.1587 56.0396 78.721 55.4441 77.2211 54.9231Z"/>
	<path fill="#FEE033" d="M71.9451 47.8021C73.5177 48.5223 75.3746 49.6793 75.9638 51.416C76.082 51.7647 76.0487 52.1312 75.9858 52.4874C75.6217 53.1326 75.0601 53.4863 74.3535 53.6806C73.0391 54.0419 69.9849 53.0851 68.5141 52.9289C67.8891 52.8626 66.6391 53.0578 66.1542 52.7664C66.0135 52.6818 65.8689 52.5695 65.7696 52.4392C68.0509 51.1187 69.9828 49.5571 71.9451 47.8021Z"/>
	<path fill="#FD940E" d="M29.7135 69.9481C31.038 69.964 34.3614 69.5122 35.4215 70.0205C34.0767 72.5809 33.3767 75.1737 32.6794 77.9711C32.009 77.5551 29.5135 77.6014 28.6404 77.5369C29.1221 75.1309 29.9176 72.4038 29.7135 69.9481Z"/>
	<path fill="#FEB52F" d="M21.2093 68.3096C23.8043 68.9209 26.3925 69.5398 29.0516 69.8063L29.7135 69.9481C29.9176 72.4038 29.1221 75.1309 28.6404 77.5369C26.189 77.2334 23.6566 76.6523 21.3142 75.8676Q21.2233 72.0891 21.2093 68.3096Z"/>
	<path fill="#FEB52F" d="M21.6264 56.9844C22.6785 57.4626 23.7254 57.9679 24.7907 58.4147C25.5314 59.0227 26.5759 59.6984 26.9178 60.6164L26.7482 61.2465C28.7388 62.1214 30.5539 63.8905 32.32 65.1673C33.5054 66.0243 34.7966 66.7678 36.0398 67.5405L36.2948 67.519L36.1685 69.4212C35.9585 69.5948 35.6598 69.9072 35.4215 70.0205C34.3614 69.5122 31.038 69.964 29.7135 69.9481L29.0516 69.8063C28.8157 69.0694 28.3264 68.3846 27.9305 67.723C27.4697 67.4982 27.0235 67.1664 26.5874 66.8925C24.9471 66.7247 22.6656 66.5282 21.2966 65.5478C20.4865 64.9675 20.5095 64.2647 20.3588 63.3625C20.6533 62.1736 21.1753 61.033 21.9585 60.091L22.0448 59.6972C21.8166 58.3314 21.1929 58.576 21.6264 56.9844Z"/>
	<path fill="#FED6CD" d="M21.6264 56.9844C22.6785 57.4626 23.7254 57.9679 24.7907 58.4147C25.5314 59.0227 26.5759 59.6984 26.9178 60.6164L26.7482 61.2465C25.7189 60.8151 23.0332 59.3749 22.0448 59.6972C21.8166 58.3314 21.1929 58.576 21.6264 56.9844Z"/>
	<path fill="#FEC461" d="M27.9305 67.723C30.5075 66.8425 33.4271 68.1554 36.0398 67.5405L36.2948 67.519L36.1685 69.4212C35.9585 69.5948 35.6598 69.9072 35.4215 70.0205C34.3614 69.5122 31.038 69.964 29.7135 69.9481L29.0516 69.8063C28.8157 69.0694 28.3264 68.3846 27.9305 67.723Z"/>
	<path fill="#FEE033" d="M21.9585 60.091C22.7083 61.9452 25.5902 64.9309 26.5874 66.8925C24.9471 66.7247 22.6656 66.5282 21.2966 65.5478C20.4865 64.9675 20.5095 64.2647 20.3588 63.3625C20.6533 62.1736 21.1753 61.033 21.9585 60.091Z"/>
	<path fill="#FEE033" d="M113.395 64.7468C114.67 65.5759 116.977 66.8074 117.293 68.4283C117.405 69.0011 117.141 69.589 116.806 70.041C113.758 74.1614 102.852 77.4263 97.9243 78.1166L95.7242 78.4123C95.6737 77.2571 94.7393 73.0747 94.9423 72.4957C101.972 72.7132 108.317 69.2684 113.395 64.7468Z"/>
	<path fill="#FEE033" d="M2.01763 51.6319C2.33913 52.1633 2.904 52.8946 3.06487 53.4775C5.49309 59.5997 11.7002 64.4138 17.5851 66.9592C18.7678 67.4708 19.9908 67.892 21.2093 68.3096Q21.2233 72.0891 21.3142 75.8676C16.6418 74.5357 11.7764 71.5373 8.35886 68.0982C3.21864 62.9256 1.99169 58.7965 2.01763 51.6319Z"/>
	<path fill="#FEE033" d="M84.3599 87.2396C85.8518 87.7917 87.8058 88.6289 88.5034 90.1809C88.8178 90.8804 88.7956 91.6182 88.525 92.3249C87.0736 96.1144 79.8962 100.493 76.2878 102.063Q75.2309 102.525 74.1451 102.914Q73.0593 103.302 71.9498 103.617Q70.8402 103.932 69.7118 104.17Q68.5835 104.409 67.4416 104.571Q66.2997 104.733 65.1494 104.817Q63.9992 104.901 62.8458 104.907Q61.6925 104.913 60.5415 104.842Q59.3904 104.77 58.2468 104.62C57.3134 104.493 56.0963 104.431 55.2292 104.062C54.6889 103.832 54.4116 103.608 54.2051 103.06C54.1738 102.977 54.1471 102.893 54.1201 102.808C53.7657 100.684 54.2358 99.0053 55.1063 97.1013Q56.481 97.5433 57.8961 97.8306Q59.3112 98.1178 60.7495 98.2468Q62.1877 98.3757 63.6314 98.3448Q65.075 98.3138 66.5064 98.1234C74.1789 97.1108 79.7319 93.2767 84.3599 87.2396Z"/>
	<path fill="#FEE033" d="M45.2369 17.5935C52.9429 15.2954 62.6806 17.1675 69.6417 20.9422C74.9574 23.8247 79.5355 28.3431 81.274 34.2622C82.0761 36.9932 82.5044 41.4971 81.1209 44.0494C80.7592 44.7168 80.2224 45.259 79.4777 45.4796C78.2615 45.8398 77.2443 45.4065 76.1847 44.8196C75.5178 44.4502 74.7551 44.1398 74.5504 43.3597C74.543 43.3315 74.5398 43.3024 74.5345 43.2738C75.5302 40.7875 75.7594 38.0824 75.0691 35.4838C73.9393 31.2307 70.7324 27.8238 66.9955 25.6567C64.7553 23.9877 61.6944 23.1 59.0283 22.4148Q56.469 21.8605 53.853 21.7419Q51.2371 21.6232 48.6381 21.9436C47.1293 22.116 45.0527 23.1517 43.6386 22.6361C43.2462 22.1184 43.073 21.9227 43.1297 21.2369C43.2539 19.7359 44.1476 18.541 45.2369 17.5935Z"/>
	<path fill="#FEFEFE" d="M25.4663 24.1264C26.4694 23.7549 27.3689 23.4716 28.4462 23.4415L28.707 23.7546C28.4398 24.5147 28.0381 24.9517 27.4868 25.5164L27.9014 25.6396L27.4083 26.43C27.5566 27.0268 27.8034 27.1804 28.2397 27.584C26.45 28.3389 26.1077 29.6005 24.9195 30.2736L23.5204 30.7205L22.8999 31.3601C23.0697 32.3981 21.5424 35.6634 21.3618 37.1986L21.7339 38.043C22.0612 38.1622 22.3717 38.2848 22.723 38.309L22.7502 38.4528C21.5451 39.2626 21.4748 40.3432 20.6797 41.4275C21.4728 42.4026 21.3408 43.8307 21.6076 45.0047L20.9898 46.2653L20.2045 45.6413C18.739 48.4269 20.9047 52.5497 20.2372 54.3019C20.0782 54.7192 19.5946 55.0974 19.2646 55.3749C20.05 55.9129 20.8292 56.4643 21.6264 56.9844C21.1929 58.576 21.8166 58.3314 22.0448 59.6972L21.9585 60.091C21.1753 61.033 20.6533 62.1736 20.3588 63.3625C20.348 63.9995 20.3638 64.6427 20.2119 65.2652C18.0697 64.9614 15.263 62.977 13.3371 61.8863L10.7894 59.9376C7.72141 56.9266 5.8174 54.1199 4.11919 50.1724C3.87025 49.6204 3.73754 49.0318 3.61666 48.4407C3.42532 47.505 3.26684 46.3479 3.81906 45.5049C3.80728 45.4856 3.79431 45.4669 3.78373 45.4469C3.76627 45.4139 3.75153 45.3795 3.73504 45.346C3.32463 44.5121 3.47908 43.6092 3.54551 42.7118C4.19132 39.722 5.23375 36.3436 7.67378 34.3523C7.46666 34.0245 7.51927 33.9532 7.58434 33.5878Q8.86542 32.172 10.3104 30.9238Q11.7553 29.6757 13.3423 28.6141Q14.9293 27.5524 16.6345 26.6933Q18.3396 25.8341 20.1372 25.1904C21.3132 24.7347 22.5384 24.2379 23.7619 23.9281C24.5373 23.7318 24.7819 23.7083 25.4663 24.1264Z"/>
	<path fill="#FEE033" d="M25.4663 24.1264C26.4694 23.7549 27.3689 23.4716 28.4462 23.4415L28.707 23.7546C28.4398 24.5147 28.0381 24.9517 27.4868 25.5164L27.9014 25.6396L27.4083 26.43C27.5566 27.0268 27.8034 27.1804 28.2397 27.584C26.45 28.3389 26.1077 29.6005 24.9195 30.2736L23.5204 30.7205C23.8393 30.2729 23.8871 29.8734 23.9475 29.3358C23.6982 28.8139 23.5887 28.2666 23.5814 27.6903C23.5623 26.1931 24.4767 25.1364 25.4663 24.1264Z"/>
	<path fill="#FEFCE0" d="M27.4868 25.5164L27.9014 25.6396L27.4083 26.43C27.5566 27.0268 27.8034 27.1804 28.2397 27.584C26.45 28.3389 26.1077 29.6005 24.9195 30.2736L23.5204 30.7205C23.8393 30.2729 23.8871 29.8734 23.9475 29.3358C25.1697 28.5409 26.3279 26.5919 27.4868 25.5164Z"/>
	<path fill="#FEE033" d="M7.67378 34.3523C9.24516 33.8806 11.2949 33.8798 12.7726 34.6918C13.1336 34.8902 13.3765 35.2008 13.6004 35.5396C13.4788 37.1256 11.4926 38.9154 10.9546 40.4913C10.2839 42.4561 10.7524 45.1594 9.90444 46.9875C8.96658 47.5661 8.15668 47.9855 7.03125 47.7233C5.75064 47.4249 4.75996 46.3649 3.81906 45.5049C3.80728 45.4856 3.79431 45.4669 3.78373 45.4469C3.76627 45.4139 3.75153 45.3795 3.73504 45.346C3.32463 44.5121 3.47908 43.6092 3.54551 42.7118C4.19132 39.722 5.23375 36.3436 7.67378 34.3523Z"/>
	<path fill="#FD940E" d="M22.8999 31.3601C23.0697 32.3981 21.5424 35.6634 21.3618 37.1986L21.7339 38.043C22.0612 38.1622 22.3717 38.2848 22.723 38.309L22.7502 38.4528C21.5451 39.2626 21.4748 40.3432 20.6797 41.4275C21.4728 42.4026 21.3408 43.8307 21.6076 45.0047L20.9898 46.2653L20.2045 45.6413C18.739 48.4269 20.9047 52.5497 20.2372 54.3019C20.0782 54.7192 19.5946 55.0974 19.2646 55.3749C19.2358 55.3626 19.2067 55.3508 19.1782 55.3378C16.0104 53.9027 13.9542 49.8963 12.819 46.7918C12.2805 45.2347 12.5663 43.0419 13.0297 41.5C14.5075 36.5829 18.5873 33.6545 22.8999 31.3601Z"/>
	<path fill="#FFEB87" d="M17.6108 39.2747C18.4284 39.1707 19.8076 39.1326 20.5048 38.7223C21.1858 38.3214 21.1949 37.8901 21.3618 37.1986L21.7339 38.043C22.0612 38.1622 22.3717 38.2848 22.723 38.309L22.7502 38.4528C21.5451 39.2626 21.4748 40.3432 20.6797 41.4275C19.5862 40.789 18.6079 40.0495 17.6108 39.2747Z"/>
	<path fill="#FEB52F" d="M12.819 46.7918C13.3865 46.5101 15.9597 42.0893 16.9036 41.0931C18.1135 41.1666 18.3529 43.2122 18.8936 44.1283C19.2205 44.682 19.7567 45.181 20.2045 45.6413C18.739 48.4269 20.9047 52.5497 20.2372 54.3019C20.0782 54.7192 19.5946 55.0974 19.2646 55.3749C19.2358 55.3626 19.2067 55.3508 19.1782 55.3378C16.0104 53.9027 13.9542 49.8963 12.819 46.7918Z"/>
	<path fill="#FEE033" d="M86.6025 34.6139C94.5824 32.4558 104.566 34.2835 111.658 38.3632C116.841 41.3445 121.122 45.9536 122.701 51.8206C123.425 54.5086 123.876 58.7348 122.419 61.2132C122.045 61.8489 121.495 62.3631 120.768 62.5556C119.171 62.9781 117.338 61.8117 116.048 60.9711C115.953 60.9097 115.882 60.8421 115.801 60.765C115.037 62.1051 114.313 63.5053 113.395 64.7468C108.317 69.2684 101.972 72.7132 94.9423 72.4957C94.6245 71.9081 94.3738 71.4592 94.3822 70.768C95.009 70.1979 95.5187 70.209 96.3402 70.0471L94.5053 70.1526C95.1791 68.3153 94.9149 66.1928 95.7101 64.3024C94.7875 64.0912 93.4138 63.6061 92.5648 64.1416C92.1338 64.4135 91.7323 64.7598 91.3426 65.0871C90.1682 63.6837 88.9323 62.3624 87.6576 61.05L84.7121 58.6905L81.6038 56.6969C82.1047 55.5394 82.537 54.5212 83.3842 53.5674C83.3652 52.6884 83.5477 52.0121 83.831 51.1856C84.0008 50.8523 83.9876 50.3339 84.0206 49.9597C84.085 49.628 84.1426 49.2061 84.3069 48.9073C84.6092 48.3575 84.9136 48.3513 85.4799 48.1859C84.5606 47.6687 84.3349 46.1616 83.8181 45.1794C84.1342 44.2748 84.1845 42.3429 84.7733 41.6832C84.7442 41.273 84.8103 40.912 84.8875 40.5114L85.4627 40.1948C84.8552 39.8931 84.665 39.8521 84.4362 39.175C84.1459 38.3156 84.4667 37.3724 84.8626 36.6046C85.2699 35.8145 85.9615 35.2122 86.6025 34.6139Z"/>
	<defs>
		<linearGradient id="gradient_1" gradientUnits="userSpaceOnUse" x1="94.586052" y1="39.08411" x2="94.654488" y2="40.254181">
			<stop offset="0" stop-color="#FFE"/>
			<stop offset="1" stop-color="#FFF8F8"/>
		</linearGradient>
	</defs>
	<path fill="url(#gradient_1)" d="M89.1791 39.2715C92.8829 38.4918 96.7646 38.6656 100.452 39.4688L98.7352 40.6237C96.4355 40.285 94.1254 40.2557 91.8061 40.274C91.3662 40.26 90.9054 40.2599 90.4704 40.1933C89.7283 40.0798 89.5989 39.8482 89.1791 39.2715Z"/>
	<path fill="#FEFEFE" d="M100.452 39.4688C106.24 41.1039 112.089 43.9715 115.147 49.4374Q115.457 49.998 115.711 50.5863Q115.964 51.1747 116.158 51.7853Q116.353 52.3958 116.486 53.0225Q116.619 53.6491 116.69 54.2859Q116.761 54.9226 116.768 55.5633Q116.776 56.2039 116.72 56.8422Q116.665 57.4804 116.547 58.1101Q116.429 58.7398 116.249 59.3548Q116.043 60.0657 115.801 60.765C115.037 62.1051 114.313 63.5053 113.395 64.7468C108.317 69.2684 101.972 72.7132 94.9423 72.4957C94.6245 71.9081 94.3738 71.4592 94.3822 70.768C95.009 70.1979 95.5187 70.209 96.3402 70.0471C99.6862 69.4907 102.936 68.7604 105.945 67.135C110.141 64.8682 112.679 61.6315 114.036 57.0757C114.32 54.2061 113.88 51.4639 112.363 48.9681C109.392 44.08 104.038 41.9282 98.7352 40.6237L100.452 39.4688Z"/>
	<path fill="#FE7703" d="M85.4627 40.1948C86.6743 39.6935 87.882 39.4242 89.1791 39.2715C89.5989 39.8482 89.7283 40.0798 90.4704 40.1933C90.9054 40.2599 91.3662 40.26 91.8061 40.274C94.1254 40.2557 96.4355 40.285 98.7352 40.6237C104.038 41.9282 109.392 44.08 112.363 48.9681C113.88 51.4639 114.32 54.2061 114.036 57.0757C112.346 55.7778 110.855 52.6983 109.082 50.9536L108.656 50.1544C108.284 49.716 107.795 49.702 107.248 49.5653C106.387 49.667 105.768 49.8984 105.002 50.3001L104.746 50.7542C103.842 49.254 100.237 49.8238 98.5412 49.0068C96.7397 48.0769 95.1072 45.8009 93.7266 44.3113C92.3374 46.0662 90.6614 48.2945 88.5149 49.1116C88.3553 48.629 88.5127 48.4232 88.6761 47.9512C87.3157 47.6065 86.7469 47.579 85.4799 48.1859C84.5606 47.6687 84.3349 46.1616 83.8181 45.1794C84.1342 44.2748 84.1845 42.3429 84.7733 41.6832C84.7442 41.273 84.8103 40.912 84.8875 40.5114L85.4627 40.1948Z"/>
	<path fill="#FEFCE0" d="M85.4627 40.1948C86.6743 39.6935 87.882 39.4242 89.1791 39.2715C89.5989 39.8482 89.7283 40.0798 90.4704 40.1933C90.9054 40.2599 91.3662 40.26 91.8061 40.274C89.3843 40.5689 87.109 40.9763 84.7733 41.6832C84.7442 41.273 84.8103 40.912 84.8875 40.5114L85.4627 40.1948Z"/>
	<path fill="#FFEB87" d="M99.3526 48.1319C102.618 47.3378 104.294 49.2844 107.248 49.5653C106.387 49.667 105.768 49.8984 105.002 50.3001L104.746 50.7542C103.842 49.254 100.237 49.8238 98.5412 49.0068C98.8582 48.8129 99.1172 48.4201 99.3526 48.1319Z"/>
	<path fill="#FFEB87" d="M93.8633 42.3977C95.4661 44.5864 97.2985 46.3693 99.3526 48.1319C99.1172 48.4201 98.8582 48.8129 98.5412 49.0068C96.7397 48.0769 95.1072 45.8009 93.7266 44.3113C92.3374 46.0662 90.6614 48.2945 88.5149 49.1116C88.3553 48.629 88.5127 48.4232 88.6761 47.9512Q91.4518 45.3445 93.8633 42.3977Z"/>
	<defs>
		<linearGradient id="gradient_2" gradientUnits="userSpaceOnUse" x1="84.389977" y1="52.580002" x2="103.54701" y2="51.114647">
			<stop offset="0" stop-color="#FFAE1C"/>
			<stop offset="1" stop-color="#FFE22E"/>
		</linearGradient>
	</defs>
	<path fill="url(#gradient_2)" d="M88.5149 49.1116C90.6614 48.2945 92.3374 46.0662 93.7266 44.3113C95.1072 45.8009 96.7397 48.0769 98.5412 49.0068C100.237 49.8238 103.842 49.254 104.746 50.7542L105.002 50.3001C105.768 49.8984 106.387 49.667 107.248 49.5653C107.795 49.702 108.284 49.716 108.656 50.1544L109.082 50.9536C110.855 52.6983 112.346 55.7778 114.036 57.0757C112.679 61.6315 110.141 64.8682 105.945 67.135C102.936 68.7604 99.6862 69.4907 96.3402 70.0471L94.5053 70.1526C95.1791 68.3153 94.9149 66.1928 95.7101 64.3024C94.7875 64.0912 93.4138 63.6061 92.5648 64.1416C92.1338 64.4135 91.7323 64.7598 91.3426 65.0871C90.1682 63.6837 88.9323 62.3624 87.6576 61.05L84.7121 58.6905L81.6038 56.6969C82.1047 55.5394 82.537 54.5212 83.3842 53.5674C83.3652 52.6884 83.5477 52.0121 83.831 51.1856C84.0008 50.8523 83.9876 50.3339 84.0206 49.9597C84.085 49.628 84.1426 49.2061 84.3069 48.9073C84.6092 48.3575 84.9136 48.3513 85.4799 48.1859C86.7469 47.579 87.3157 47.6065 88.6761 47.9512C88.5127 48.4232 88.3553 48.629 88.5149 49.1116Z"/>
	<path fill="#FEC461" d="M85.4799 48.1859C86.7469 47.579 87.3157 47.6065 88.6761 47.9512C88.5127 48.4232 88.3553 48.629 88.5149 49.1116C87.6851 49.7919 85.2367 50.081 84.1661 49.9772Q84.0932 49.9697 84.0206 49.9597C84.085 49.628 84.1426 49.2061 84.3069 48.9073C84.6092 48.3575 84.9136 48.3513 85.4799 48.1859Z"/>
	<path fill="#FFEB87" d="M93.7805 57.4692C94.7716 57.6553 95.7389 58.0197 96.6954 58.3358C96.3964 58.8124 96.1912 59.1686 96.1416 59.7355L93.733 59.1614C91.8021 59.7341 89.7936 60.4662 87.7816 60.6339L87.4559 60.2513C87.5322 59.9917 87.5425 59.779 87.5349 59.5122L87.5315 59.418C89.2972 58.4201 91.8147 58.0162 93.7805 57.4692Z"/>
	<path fill="#FEC461" d="M83.831 51.1856C85.0881 52.0803 86.0217 53.2582 87.3277 54.1464C86.9907 55.6937 86.475 57.366 86.5697 58.9575C86.9077 59.3888 86.9885 59.3469 87.5315 59.418L87.5349 59.5122C87.5425 59.779 87.5322 59.9917 87.4559 60.2513L87.7816 60.6339L87.6576 61.05L84.7121 58.6905L81.6038 56.6969C82.1047 55.5394 82.537 54.5212 83.3842 53.5674C83.3652 52.6884 83.5477 52.0121 83.831 51.1856Z"/>
	<path fill="#FE7703" d="M83.3842 53.5674L85.3551 55.1973C85.2608 56.2693 85.2904 57.7619 84.7121 58.6905L81.6038 56.6969C82.1047 55.5394 82.537 54.5212 83.3842 53.5674Z"/>
	<path fill="#FFF394" d="M104.746 50.7542L105.002 50.3001C105.768 49.8984 106.387 49.667 107.248 49.5653C107.795 49.702 108.284 49.716 108.656 50.1544L109.082 50.9536C109.069 50.9739 109.056 50.994 109.043 51.0145C108.404 52.0211 108.826 53.0167 108.392 53.9467C107.977 54.8354 103.957 58.6349 102.998 58.8575C102.92 58.8756 102.849 58.8882 102.769 58.8982C102.824 59.8436 103.12 60.9331 103.012 61.855C101.621 61.4816 100.239 61.0551 98.8548 60.6548L96.1416 59.7355C96.1912 59.1686 96.3964 58.8124 96.6954 58.3358C98.0417 58.542 99.2468 58.8707 100.533 59.3068L101.145 58.7866C100.751 57.2391 100.563 55.7132 100.396 54.1282C101.898 53.0908 103.314 51.8877 104.746 50.7542Z"/>
	<path fill="#FE7703" d="M102.228 55.0675C104.273 53.7125 106.954 51.8902 108.656 50.1544L109.082 50.9536C109.069 50.9739 109.056 50.994 109.043 51.0145C108.404 52.0211 108.826 53.0167 108.392 53.9467C107.977 54.8354 103.957 58.6349 102.998 58.8575C102.92 58.8756 102.849 58.8882 102.769 58.8982L102.621 58.4191C102.579 57.3057 102.372 56.173 102.228 55.0675Z"/>
	<path fill="#FE7703" d="M93.733 59.1614L96.1416 59.7355L98.8548 60.6548C100.239 61.0551 101.621 61.4816 103.012 61.855C103.235 62.6763 103.461 64.4483 103.037 65.1927C102.816 65.5807 102.617 65.6909 102.179 65.8024C100.431 66.2465 97.5211 64.5877 95.7101 64.3024C94.7875 64.0912 93.4138 63.6061 92.5648 64.1416C92.1338 64.4135 91.7323 64.7598 91.3426 65.0871C90.1682 63.6837 88.9323 62.3624 87.6576 61.05L87.7816 60.6339C89.7936 60.4662 91.8021 59.7341 93.733 59.1614Z"/>
	<path fill="#FEB52F" d="M109.082 50.9536C110.855 52.6983 112.346 55.7778 114.036 57.0757C112.679 61.6315 110.141 64.8682 105.945 67.135C102.936 68.7604 99.6862 69.4907 96.3402 70.0471L94.5053 70.1526C95.1791 68.3153 94.9149 66.1928 95.7101 64.3024C97.5211 64.5877 100.431 66.2465 102.179 65.8024C102.617 65.6909 102.816 65.5807 103.037 65.1927C103.461 64.4483 103.235 62.6763 103.012 61.855C103.12 60.9331 102.824 59.8436 102.769 58.8982C102.849 58.8882 102.92 58.8756 102.998 58.8575C103.957 58.6349 107.977 54.8354 108.392 53.9467C108.826 53.0167 108.404 52.0211 109.043 51.0145C109.056 50.994 109.069 50.9739 109.082 50.9536Z"/>
	<path fill="#FEFEFE" d="M44.3516 16.6405L45.1811 16.9139C45.2136 17.1178 45.294 17.3934 45.2369 17.5935C44.1476 18.541 43.2539 19.7359 43.1297 21.2369C43.073 21.9227 43.2462 22.1184 43.6386 22.6361C45.0527 23.1517 47.1293 22.116 48.6381 21.9436Q51.2371 21.6232 53.853 21.7419Q56.469 21.8605 59.0283 22.4148C61.6944 23.1 64.7553 23.9877 66.9955 25.6567C70.7324 27.8238 73.9393 31.2307 75.0691 35.4838C75.7594 38.0824 75.5302 40.7875 74.5345 43.2738Q74.0925 44.5116 73.4401 45.6525Q72.7877 46.7934 71.9451 47.8021C69.9828 49.5571 68.0509 51.1187 65.7696 52.4392C64.7969 52.7475 60.1882 53.5531 59.8216 53.9219C58.2023 54.2252 56.5858 54.5215 54.9866 54.9205C50.0367 55.3885 46.3809 55.4277 41.7811 53.1322C41.1295 54.2013 40.5746 55.2188 40.1207 56.3925C40.137 57.2423 40.0445 58.1998 40.5594 58.9233C41.1771 59.4917 41.9959 59.6797 42.7786 59.9233L43.2755 60.2715C43.0856 60.8767 42.7159 61.0525 42.1614 61.3424C41.798 61.5323 41.4073 61.6844 41.0273 61.8384C40.8186 62.6443 40.5368 62.9581 39.8906 63.4607C38.4385 64.5135 37.7173 66.4675 36.2948 67.519L36.0398 67.5405C34.7966 66.7678 33.5054 66.0243 32.32 65.1673C30.5539 63.8905 28.7388 62.1214 26.7482 61.2465L26.9178 60.6164C26.5759 59.6984 25.5314 59.0227 24.7907 58.4147C23.7254 57.9679 22.6785 57.4626 21.6264 56.9844C20.8292 56.4643 20.05 55.9129 19.2646 55.3749C19.5946 55.0974 20.0782 54.7192 20.2372 54.3019C20.9047 52.5497 18.739 48.4269 20.2045 45.6413L20.9898 46.2653L21.6076 45.0047C21.3408 43.8307 21.4728 42.4026 20.6797 41.4275C21.4748 40.3432 21.5451 39.2626 22.7502 38.4528L22.723 38.309C22.3717 38.2848 22.0612 38.1622 21.7339 38.043L21.3618 37.1986C21.5424 35.6634 23.0697 32.3981 22.8999 31.3601L23.5204 30.7205L24.9195 30.2736C26.1077 29.6005 26.45 28.3389 28.2397 27.584C27.8034 27.1804 27.5566 27.0268 27.4083 26.43L27.9014 25.6396C31.7031 21.3129 39.5018 19.2681 44.3516 16.6405Z"/>
	<path fill="#FFF394" d="M22.7502 38.4528L23.5591 39.2698C23.011 39.8491 23.0325 40.083 23.0596 40.8703C23.2092 45.2127 26.9011 50.2193 29.9917 53.0634C31.8032 54.7304 37.2686 58.8225 39.6691 58.7925C40.1734 58.2864 39.9532 57.1044 40.1207 56.3925C40.137 57.2423 40.0445 58.1998 40.5594 58.9233C41.1771 59.4917 41.9959 59.6797 42.7786 59.9233L43.2755 60.2715C43.0856 60.8767 42.7159 61.0525 42.1614 61.3424C41.798 61.5323 41.4073 61.6844 41.0273 61.8384C40.3265 61.7131 39.6557 61.5208 38.9877 61.277C30.7256 58.2615 25.2879 52.9024 21.6076 45.0047C21.3408 43.8307 21.4728 42.4026 20.6797 41.4275C21.4748 40.3432 21.5451 39.2626 22.7502 38.4528Z"/>
	<path fill="#FEE033" d="M28.2397 27.584C29.5744 27.4088 31.454 27.6432 32.5757 28.4612C32.8071 28.63 32.9977 28.8629 33.1609 29.0958C32.987 30.6909 31.1689 32.6116 30.5344 34.1532C29.8707 35.7656 30.3697 39.7383 29.0481 40.8188C28.516 41.2539 27.6763 41.5112 27.0012 41.4274C25.7054 41.2665 24.5061 40.1054 23.5591 39.2698L22.7502 38.4528L22.723 38.309C22.3717 38.2848 22.0612 38.1622 21.7339 38.043L21.3618 37.1986C21.5424 35.6634 23.0697 32.3981 22.8999 31.3601L23.5204 30.7205L24.9195 30.2736C26.1077 29.6005 26.45 28.3389 28.2397 27.584Z"/>
	<path fill="#FFF394" d="M23.5204 30.7205L24.9195 30.2736C23.9872 32.9508 23.1236 35.4855 22.723 38.309C22.3717 38.2848 22.0612 38.1622 21.7339 38.043L21.3618 37.1986C21.5424 35.6634 23.0697 32.3981 22.8999 31.3601L23.5204 30.7205Z"/>
	<path fill="#FEE033" d="M21.6076 45.0047C25.2879 52.9024 30.7256 58.2615 38.9877 61.277C39.6557 61.5208 40.3265 61.7131 41.0273 61.8384C40.8186 62.6443 40.5368 62.9581 39.8906 63.4607C38.4385 64.5135 37.7173 66.4675 36.2948 67.519L36.0398 67.5405C34.7966 66.7678 33.5054 66.0243 32.32 65.1673C30.5539 63.8905 28.7388 62.1214 26.7482 61.2465L26.9178 60.6164C26.5759 59.6984 25.5314 59.0227 24.7907 58.4147C23.7254 57.9679 22.6785 57.4626 21.6264 56.9844C20.8292 56.4643 20.05 55.9129 19.2646 55.3749C19.5946 55.0974 20.0782 54.7192 20.2372 54.3019C20.9047 52.5497 18.739 48.4269 20.2045 45.6413L20.9898 46.2653L21.6076 45.0047Z"/>
	<path fill="#FD940E" d="M20.2045 45.6413L20.9898 46.2653C21.3445 49.2121 21.8385 51.7166 23.0104 54.4505C23.4583 55.4953 24.8446 57.4039 24.7907 58.4147C23.7254 57.9679 22.6785 57.4626 21.6264 56.9844C20.8292 56.4643 20.05 55.9129 19.2646 55.3749C19.5946 55.0974 20.0782 54.7192 20.2372 54.3019C20.9047 52.5497 18.739 48.4269 20.2045 45.6413Z"/>
	<path fill="#FE7703" d="M32.317 39.9838C32.2321 38.93 32.2207 37.9307 32.3537 36.8791C32.8279 33.1308 35.0282 30.0324 37.9629 27.7741C43.6745 23.379 50.8856 22.7409 57.7983 23.6504C59.6667 24.1743 61.5377 24.6771 63.3484 25.3811C67.3712 27.6426 71.0685 30.2963 72.37 34.9838C72.762 36.3959 72.7647 37.8397 72.7867 39.2935C72.4451 39.2969 72.0436 39.2239 71.7665 39.0036C70.8513 38.2762 69.1844 35.1894 67.5799 33.775L67.5595 32.9077L65.1739 32.4243L63.689 33.2905C62.3491 32.3484 59.8978 32.6543 58.2836 32.3788C55.9775 31.9853 53.9464 29.0786 52.6779 27.2657C49.5095 30.6396 49.0825 32.0128 44.3481 32.6881C43.3175 32.835 42.2558 32.8928 41.3028 33.3456C41.2825 33.3552 41.2624 33.3653 41.2422 33.3751C40.2834 32.563 39.1439 32.7899 37.9546 32.7708L37.7299 32.7855C37.478 33.2397 37.2324 33.8258 36.8722 34.1976C36.1039 35.1639 33.2197 39.8954 32.4361 39.979C32.3966 39.9832 32.3567 39.9822 32.317 39.9838Z"/>
	<path fill="#FFEB87" d="M52.5303 25.3347C53.9944 27.5086 56.0607 29.2576 57.9757 31.0236C60.7765 30.8493 62.6195 31.3552 65.1739 32.4243L63.689 33.2905C62.3491 32.3484 59.8978 32.6543 58.2836 32.3788C55.9775 31.9853 53.9464 29.0786 52.6779 27.2657C49.5095 30.6396 49.0825 32.0128 44.3481 32.6881C43.3175 32.835 42.2558 32.8928 41.3028 33.3456C41.2825 33.3552 41.2624 33.3653 41.2422 33.3751C40.2834 32.563 39.1439 32.7899 37.9546 32.7708C41.1695 32.3029 43.6888 30.9186 47.0754 30.9026C49.1209 29.2338 50.8511 27.3667 52.5303 25.3347Z"/>
	<defs>
		<linearGradient id="gradient_3" gradientUnits="userSpaceOnUse" x1="56.015171" y1="30.632414" x2="48.514214" y2="52.465042">
			<stop offset="0" stop-color="#FFB232"/>
			<stop offset="1" stop-color="#FFD042"/>
		</linearGradient>
	</defs>
	<path fill="url(#gradient_3)" d="M41.2422 33.3751C41.2624 33.3653 41.2825 33.3552 41.3028 33.3456C42.2558 32.8928 43.3175 32.835 44.3481 32.6881C49.0825 32.0128 49.5095 30.6396 52.6779 27.2657C53.9464 29.0786 55.9775 31.9853 58.2836 32.3788C59.8978 32.6543 62.3491 32.3484 63.689 33.2905L65.1739 32.4243L67.5595 32.9077L67.5799 33.775C69.1844 35.1894 70.8513 38.2762 71.7665 39.0036C72.0436 39.2239 72.4451 39.2969 72.7867 39.2935C72.2702 43.0039 70.0273 46.2758 67.075 48.5075C62.0284 52.3224 54.8769 53.5648 48.7042 52.7015C43.5324 51.9781 38.2097 49.6375 34.9951 45.3795C33.759 43.7422 32.9717 41.9189 32.317 39.9838C32.3567 39.9822 32.3966 39.9832 32.4361 39.979C33.2197 39.8954 36.1039 35.1639 36.8722 34.1976C37.2324 33.8258 37.478 33.2397 37.7299 32.7855L37.9546 32.7708C39.1439 32.7899 40.2834 32.563 41.2422 33.3751Z"/>
	<path fill="#FD940E" d="M36.8722 34.1976C37.2324 33.8258 37.478 33.2397 37.7299 32.7855L37.9546 32.7708C39.1439 32.7899 40.2834 32.563 41.2422 33.3751C41.739 33.8175 42.6802 34.3224 43.0648 34.7799C42.6838 34.8413 42.2911 34.7997 42.0563 35.1297C41.8436 35.4287 41.7993 35.8671 41.7336 36.2219L41.5662 36.256C40.9856 37.1958 40.3031 38.056 39.9994 39.1317C37.1316 37.0207 38.2497 35.4124 36.8722 34.1976Z"/>
	<path fill="#FFF394" d="M37.9546 32.7708C39.1439 32.7899 40.2834 32.563 41.2422 33.3751C41.739 33.8175 42.6802 34.3224 43.0648 34.7799C42.6838 34.8413 42.2911 34.7997 42.0563 35.1297C41.8436 35.4287 41.7993 35.8671 41.7336 36.2219L41.5662 36.256C40.5378 35.2226 38.2014 34.09 37.7299 32.7855L37.9546 32.7708Z"/>
	<path fill="#FE7703" d="M65.1739 32.4243L67.5595 32.9077L67.5799 33.775C67.2011 34.7974 67.2304 35.8323 67.2211 36.9057C65.5761 38.5441 63.5237 41.0211 61.4808 42.057L60.9167 38.159C61.6739 37.469 62.5345 36.8575 63.3409 36.2238C63.5401 35.6434 63.7461 35.1553 63.5906 34.5348L62.9851 34.2204L63.689 33.2905L65.1739 32.4243Z"/>
	<path fill="#FFF394" d="M65.1739 32.4243L67.5595 32.9077C66.2028 34.0685 64.7562 35.1351 63.3409 36.2238C63.5401 35.6434 63.7461 35.1553 63.5906 34.5348L62.9851 34.2204L63.689 33.2905L65.1739 32.4243Z"/>
	<defs>
		<linearGradient id="gradient_4" gradientUnits="userSpaceOnUse" x1="56.17017" y1="51.817181" x2="48.743809" y2="41.564053">
			<stop offset="0" stop-color="#FF9C05"/>
			<stop offset="1" stop-color="#FFB605"/>
		</linearGradient>
	</defs>
	<path fill="url(#gradient_4)" d="M43.2738 44.7946C49.7524 42.9682 50.8555 41.4908 57.8348 43.6662C58.8864 43.9988 59.9748 44.2918 61.0049 44.6829C61.319 44.8213 61.5862 44.8501 61.7154 45.1885C62.0829 46.1511 61.5881 48.2421 61.4602 49.3237C58.5057 48.4032 55.488 47.6017 52.5586 46.6152Q47.9763 47.9804 43.3798 49.2973C43.3442 47.889 43.0965 46.1688 43.2738 44.7946Z"/>
	<path fill="#FEE033" d="M41.2422 33.3751C41.2624 33.3653 41.2825 33.3552 41.3028 33.3456C42.2558 32.8928 43.3175 32.835 44.3481 32.6881C49.0825 32.0128 49.5095 30.6396 52.6779 27.2657C53.9464 29.0786 55.9775 31.9853 58.2836 32.3788C59.8978 32.6543 62.3491 32.3484 63.689 33.2905L62.9851 34.2204L63.5906 34.5348C63.7461 35.1553 63.5401 35.6434 63.3409 36.2238C62.5345 36.8575 61.6739 37.469 60.9167 38.159L61.4808 42.057C61.5368 42.6065 61.5617 43.1811 61.662 43.7233L61.6765 44.353L61.0049 44.6829C59.9748 44.2918 58.8864 43.9988 57.8348 43.6662C50.8555 41.4908 49.7524 42.9682 43.2738 44.7946C43.1857 43.8005 43.4567 42.6179 43.5777 41.6199C42.3109 41.5747 40.95 39.9436 39.9994 39.1317C40.3031 38.056 40.9856 37.1958 41.5662 36.256L41.7336 36.2219C41.7993 35.8671 41.8436 35.4287 42.0563 35.1297C42.2911 34.7997 42.6838 34.8413 43.0648 34.7799C42.6802 34.3224 41.739 33.8175 41.2422 33.3751Z"/>
	<path fill="#FFEB87" d="M62.811 34.3638L62.9851 34.2204L63.5906 34.5348C63.7461 35.1553 63.5401 35.6434 63.3409 36.2238C62.5345 36.8575 61.6739 37.469 60.9167 38.159L61.4808 42.057C61.5368 42.6065 61.5617 43.1811 61.662 43.7233L61.6765 44.353L61.0049 44.6829C59.9748 44.2918 58.8864 43.9988 57.8348 43.6662C58.2557 43.2702 58.8383 42.8536 58.9266 42.2536L59.3136 42.3345C59.382 42.2805 59.3869 42.2807 59.4543 42.2037C59.9453 41.6435 59.6481 40.7617 59.5742 40.0676L59.074 37.0076C60.2852 36.0842 61.4798 35.1107 62.811 34.3638Z"/>
	<path fill="#FEFCE0" d="M41.7336 36.2219C41.7993 35.8671 41.8436 35.4287 42.0563 35.1297C42.2911 34.7997 42.6838 34.8413 43.0648 34.7799C44.0089 35.5181 44.9536 36.2458 45.9352 36.9343C45.675 38.7495 45.3821 40.567 45.2619 42.398C51.1659 40.4613 52.8978 40.0245 58.9266 42.2536C58.8383 42.8536 58.2557 43.2702 57.8348 43.6662C50.8555 41.4908 49.7524 42.9682 43.2738 44.7946C43.1857 43.8005 43.4567 42.6179 43.5777 41.6199C42.3109 41.5747 40.95 39.9436 39.9994 39.1317C40.3031 38.056 40.9856 37.1958 41.5662 36.256L41.7336 36.2219Z"/>
	<path fill="#FEB52F" d="M41.5662 36.256L41.7336 36.2219C42.4703 36.8364 43.2305 37.4351 43.9464 38.073L43.5777 41.6199C42.3109 41.5747 40.95 39.9436 39.9994 39.1317C40.3031 38.056 40.9856 37.1958 41.5662 36.256Z"/>
	<path fill="#FEFEFE" d="M41.7811 53.1322C46.3809 55.4277 50.0367 55.3885 54.9866 54.9205C56.5858 54.5215 58.2023 54.2252 59.8216 53.9219L59.9453 53.9276C60.6783 53.9572 61.3871 53.8007 62.1163 53.8325C71.4299 54.2397 80.4519 56.222 87.0611 63.2572C91.1198 67.5775 93.5531 73.8595 93.3453 79.803C93.3033 81.0038 93.0747 82.4239 92.164 83.2962C91.6275 83.81 90.8589 84.0545 90.1234 84.0168C88.8337 83.9508 87.7225 83.159 86.7039 82.4428C86.5617 82.103 86.4311 81.7931 86.3825 81.425C86.0246 83.4904 85.281 85.3632 84.3599 87.2396C79.7319 93.2767 74.1789 97.1108 66.5064 98.1234Q65.075 98.3138 63.6314 98.3448Q62.1877 98.3757 60.7495 98.2468Q59.3112 98.1178 57.8961 97.8306Q56.481 97.5433 55.1063 97.1013C54.2358 99.0053 53.7657 100.684 54.1201 102.808L53.9428 103.52C53.4981 103.707 53.1747 103.572 52.7372 103.435C46.9227 101.126 42.974 98.4724 38.8438 93.7528C38.5713 92.4949 35.5803 88.6836 34.9896 85.5906C34.8251 84.7289 34.7759 84.2945 35.2584 83.5693C35.2037 83.5299 35.1487 83.4909 35.0961 83.4488C34.4181 82.9045 34.3474 81.9056 34.2716 81.0943C33.9724 77.8918 34.9632 72.925 37.0432 70.4297C36.6881 70.1732 36.5888 69.919 36.4378 69.5227L36.1685 69.4212L36.2948 67.519C37.7173 66.4675 38.4385 64.5135 39.8906 63.4607C40.5368 62.9581 40.8186 62.6443 41.0273 61.8384C41.4073 61.6844 41.798 61.5323 42.1614 61.3424C42.7159 61.0525 43.0856 60.8767 43.2755 60.2715L42.7786 59.9233C41.9959 59.6797 41.1771 59.4917 40.5594 58.9233C40.0445 58.1998 40.137 57.2423 40.1207 56.3925C40.5746 55.2188 41.1295 54.2013 41.7811 53.1322Z"/>
	<path fill="#FD940E" d="M82.0415 74.1314L83.3151 74.2329C83.6071 75.6096 84.0425 77.0802 84.0748 78.4885C83.9805 78.4875 83.9005 78.4777 83.8084 78.4535C82.8234 78.1946 81.8744 76.1054 81.3938 75.2915L82.0415 74.1314Z"/>
	<path fill="#FFEB87" d="M42.7786 59.9233C45.1708 59.849 46.924 57.4068 49.5454 57.3991C45.8664 59.487 42.7035 62.1541 39.8636 65.2869C38.8193 66.6764 37.7579 68.3997 36.4378 69.5227L36.1685 69.4212L36.2948 67.519C37.7173 66.4675 38.4385 64.5135 39.8906 63.4607C40.5368 62.9581 40.8186 62.6443 41.0273 61.8384C41.4073 61.6844 41.798 61.5323 42.1614 61.3424C42.7159 61.0525 43.0856 60.8767 43.2755 60.2715L42.7786 59.9233Z"/>
	<path fill="#FEE033" d="M37.0432 70.4297C38.405 69.6982 39.5692 69.2272 41.1194 69.6795C42.0737 69.958 42.9726 70.4719 43.817 70.9865C41.2905 75.4005 40.9222 79.0218 41.5831 84.0167C40.6493 84.7624 39.7142 85.6611 38.4257 85.5248C37.1729 85.3923 36.1798 84.3462 35.2584 83.5693C35.2037 83.5299 35.1487 83.4909 35.0961 83.4488C34.4181 82.9045 34.3474 81.9056 34.2716 81.0943C33.9724 77.8918 34.9632 72.925 37.0432 70.4297Z"/>
	<path fill="#FEB52F" d="M43.7295 79.7279C43.2199 76.6083 44.6638 73.0441 46.4541 70.538C49.8167 65.831 55.0304 63.0113 60.6718 62.0873C66.4598 61.1393 72.6531 62.1885 77.4664 65.6637C80.1778 67.6214 82.7668 70.8524 83.3151 74.2329L82.0415 74.1314L81.3938 75.2915C80.4734 73.9209 79.1786 72.8127 77.867 71.832L77.2567 72.3181C76.6992 71.8179 76.6134 71.7563 75.8764 71.6466C75.2376 71.8895 74.6932 72.0793 74.2126 72.592L73.9129 72.0647C72.9387 71.3954 69.6195 71.9185 68.2894 71.6811L68.2356 70.6834C67.4805 70.2042 66.9123 69.5396 66.3122 68.886C65.5731 68.367 64.9516 67.7092 64.3133 67.0747L63.0999 65.9192C62.7233 65.4817 62.3576 65.009 61.937 64.6141L60.4909 66.9735L59.9323 68.053L59.8029 67.9916C59.506 68.4886 59.2269 69.0371 58.8619 69.486C58.4445 70.2235 58.0463 70.9828 57.6017 71.7036C56.1966 72.2882 54.7816 72.7583 53.3275 73.2044L51.4979 73.301C50.5564 73.8648 49.1653 74.4707 48.3972 75.2236L48.2568 75.2766L47.7333 76.1835C47.0504 77.2056 46.4738 78.2508 45.9068 79.3387C45.4372 79.2547 45.1186 78.9856 44.7456 78.705C44.0764 78.9836 44.0779 79.0789 43.7295 79.7279Z"/>
	<path fill="#FD940E" d="M64.3133 67.0747C65.2475 66.5522 66.7046 66.8632 67.7023 67.1144C67.3896 67.5494 67.2749 67.5924 67.3282 68.1425L66.3122 68.886C65.5731 68.367 64.9516 67.7092 64.3133 67.0747Z"/>
	<path fill="#FE7703" d="M67.7023 67.1144C71.7852 67.5496 75.1642 68.4826 78.5688 70.8357C79.9546 71.8002 80.8942 72.9197 82.0415 74.1314L81.3938 75.2915C80.4734 73.9209 79.1786 72.8127 77.867 71.832L77.23 71.0781C76.7005 71.1807 76.0834 70.96 75.5654 70.8377C72.8242 69.5229 70.2838 68.7958 67.3282 68.1425C67.2749 67.5924 67.3896 67.5494 67.7023 67.1144Z"/>
	<path fill="#FEB52F" d="M67.3282 68.1425C70.2838 68.7958 72.8242 69.5229 75.5654 70.8377C76.0834 70.96 76.7005 71.1807 77.23 71.0781L77.867 71.832L77.2567 72.3181C76.6992 71.8179 76.6134 71.7563 75.8764 71.6466C75.2376 71.8895 74.6932 72.0793 74.2126 72.592L73.9129 72.0647C72.9387 71.3954 69.6195 71.9185 68.2894 71.6811L68.2356 70.6834C67.4805 70.2042 66.9123 69.5396 66.3122 68.886L67.3282 68.1425Z"/>
	<path fill="#FFEB87" d="M68.2356 70.6834C70.423 70.6987 73.5069 70.2183 75.5654 70.8377C76.0834 70.96 76.7005 71.1807 77.23 71.0781L77.867 71.832L77.2567 72.3181C76.6992 71.8179 76.6134 71.7563 75.8764 71.6466C75.2376 71.8895 74.6932 72.0793 74.2126 72.592L73.9129 72.0647C72.9387 71.3954 69.6195 71.9185 68.2894 71.6811L68.2356 70.6834Z"/>
	<path fill="#FE7703" d="M47.4487 74.5407C47.4913 74.4687 47.4866 74.4723 47.5482 74.3938C49.3915 72.0472 56.2008 67.9244 59.0414 67.6851C59.4582 67.65 59.5122 67.7337 59.8029 67.9916C59.506 68.4886 59.2269 69.0371 58.8619 69.486C58.4445 70.2235 58.0463 70.9828 57.6017 71.7036C56.1966 72.2882 54.7816 72.7583 53.3275 73.2044L51.4979 73.301C50.5564 73.8648 49.1653 74.4707 48.3972 75.2236L48.2568 75.2766L47.7333 76.1835C47.0504 77.2056 46.4738 78.2508 45.9068 79.3387C45.4372 79.2547 45.1186 78.9856 44.7456 78.705C45.5514 77.2183 46.3919 75.8627 47.4487 74.5407Z"/>
	<path fill="#FEB52F" d="M51.4979 73.301C53.5309 71.042 55.8451 69.8596 58.8619 69.486C58.4445 70.2235 58.0463 70.9828 57.6017 71.7036C56.1966 72.2882 54.7816 72.7583 53.3275 73.2044L51.4979 73.301Z"/>
	<path fill="#FEE033" d="M41.7811 53.1322C46.3809 55.4277 50.0367 55.3885 54.9866 54.9205C56.5858 54.5215 58.2023 54.2252 59.8216 53.9219L59.9453 53.9276C60.6783 53.9572 61.3871 53.8007 62.1163 53.8325C71.4299 54.2397 80.4519 56.222 87.0611 63.2572C91.1198 67.5775 93.5531 73.8595 93.3453 79.803C93.3033 81.0038 93.0747 82.4239 92.164 83.2962C91.6275 83.81 90.8589 84.0545 90.1234 84.0168C88.8337 83.9508 87.7225 83.159 86.7039 82.4428C86.5617 82.103 86.4311 81.7931 86.3825 81.425C86.9018 78.9862 86.7361 76.246 86.0307 73.8598C84.6362 69.1426 80.9836 65.3452 76.7211 63.0392C68.804 58.7561 62.5544 59.7735 54.3532 62.2001C53.4921 62.4549 53.269 62.6702 52.4407 62.2203C52.1957 61.8773 52.0442 61.535 52.0128 61.112C51.8686 59.1697 52.6474 57.5034 53.8922 56.0861C52.459 55.7179 50.9914 57.1526 49.5454 57.3991C46.924 57.4068 45.1708 59.849 42.7786 59.9233C41.9959 59.6797 41.1771 59.4917 40.5594 58.9233C40.0445 58.1998 40.137 57.2423 40.1207 56.3925C40.5746 55.2188 41.1295 54.2013 41.7811 53.1322Z"/>
	<path fill="#FEB52F" d="M61.937 64.6141C62.3576 65.009 62.7233 65.4817 63.0999 65.9192L64.3133 67.0747C64.9516 67.7092 65.5731 68.367 66.3122 68.886C66.9123 69.5396 67.4805 70.2042 68.2356 70.6834L68.2894 71.6811C69.6195 71.9185 72.9387 71.3954 73.9129 72.0647L74.2126 72.592C74.6932 72.0793 75.2376 71.8895 75.8764 71.6466C76.6134 71.7563 76.6992 71.8179 77.2567 72.3181L77.867 71.832C79.1786 72.8127 80.4734 73.9209 81.3938 75.2915C81.8744 76.1054 82.8234 78.1946 83.8084 78.4535C83.9005 78.4777 83.9805 78.4875 84.0748 78.4885C84.4155 81.1345 82.065 85.5001 80.4773 87.5513C76.9566 92.1 71.4542 94.79 65.8087 95.5013C60.1786 96.2107 54.1799 94.8735 49.6652 91.35C47.9539 90.0144 44.8053 86.6506 44.0282 84.5987C43.564 83.0668 43.7192 81.3122 43.7295 79.7279C44.0779 79.0789 44.0764 78.9836 44.7456 78.705C45.1186 78.9856 45.4372 79.2547 45.9068 79.3387C46.4738 78.2508 47.0504 77.2056 47.7333 76.1835L48.2568 75.2766L48.3972 75.2236C49.1653 74.4707 50.5564 73.8648 51.4979 73.301L53.3275 73.2044C54.7816 72.7583 56.1966 72.2882 57.6017 71.7036C58.0463 70.9828 58.4445 70.2235 58.8619 69.486C59.2269 69.0371 59.506 68.4886 59.8029 67.9916L59.9323 68.053L60.4909 66.9735L61.937 64.6141Z"/>
	<path fill="#FE7703" d="M43.7295 79.7279C44.0779 79.0789 44.0764 78.9836 44.7456 78.705C45.1186 78.9856 45.4372 79.2547 45.9068 79.3387C45.4322 80.7597 44.9167 83.4654 44.0282 84.5987C43.564 83.0668 43.7192 81.3122 43.7295 79.7279Z"/>
	<path fill="#FE7703" d="M48.2568 75.2766L48.3972 75.2236C49.6123 77.4729 54.6838 78.5636 55.2849 80.993C55.1339 82.3266 55.1884 83.7485 55.1587 85.0941C52.7729 82.0145 49.9525 79.4482 47.7333 76.1835L48.2568 75.2766Z"/>
	<path fill="#FE7703" d="M64.3976 84.1615Q69.1041 85.0469 73.7888 86.0408C74.0254 86.9461 74.228 87.7471 74.1567 88.6882L73.8981 89.0338C70.9399 88.809 67.7629 88.0625 64.8994 87.288C62.7577 88.2657 58.4547 91.0994 56.2481 90.9511C55.7381 90.6084 55.5639 90.4217 55.4557 89.7757C55.3845 89.3508 55.3817 88.7676 55.4708 88.3486C58.4977 87.147 61.3856 85.4481 64.3976 84.1615Z"/>
	<path fill="#FFF394" d="M74.2126 72.592C74.6932 72.0793 75.2376 71.8895 75.8764 71.6466C76.6134 71.7563 76.6992 71.8179 77.2567 72.3181L77.2696 72.4585L77.9006 72.682C78.3186 74.1861 76.4752 77.1397 75.7419 78.437C75.0852 79.5989 74.2819 81.552 73.0621 82.0896C73.37 83.2584 73.8254 84.8232 73.7888 86.0408Q69.1041 85.0469 64.3976 84.1615C61.3856 85.4481 58.4977 87.147 55.4708 88.3486C54.9575 87.2178 55.4818 82.6308 55.2849 80.993C54.6838 78.5636 49.6123 77.4729 48.3972 75.2236C49.1653 74.4707 50.5564 73.8648 51.4979 73.301L53.3275 73.2044L54.0511 74.2047C53.1847 74.6057 52.2492 74.8848 51.346 75.1935C53.428 76.2972 55.3335 77.4112 57.0194 79.0778C57.0605 81.0989 57.0168 83.1286 57.0119 85.1505C59.4385 84.2405 61.8086 82.8655 64.1445 81.7301C66.5258 82.5832 69.2257 82.8645 71.6914 83.541C71.1061 81.4148 70.6183 79.293 70.1911 77.1296C71.4828 75.577 72.8603 74.092 74.2126 72.592Z"/>
	<path fill="#FE7703" d="M77.2696 72.4585L77.9006 72.682C78.3186 74.1861 76.4752 77.1397 75.7419 78.437C75.0852 79.5989 74.2819 81.552 73.0621 82.0896L72.102 78.372C73.5974 76.3296 75.4814 74.2539 77.2696 72.4585Z"/>
	<path fill="#FEE033" d="M61.937 64.6141C62.3576 65.009 62.7233 65.4817 63.0999 65.9192L64.3133 67.0747C64.9516 67.7092 65.5731 68.367 66.3122 68.886C66.9123 69.5396 67.4805 70.2042 68.2356 70.6834L68.2894 71.6811C69.6195 71.9185 72.9387 71.3954 73.9129 72.0647L74.2126 72.592C72.8603 74.092 71.4828 75.577 70.1911 77.1296C70.6183 79.293 71.1061 81.4148 71.6914 83.541C69.2257 82.8645 66.5258 82.5832 64.1445 81.7301C61.8086 82.8655 59.4385 84.2405 57.0119 85.1505C57.0168 83.1286 57.0605 81.0989 57.0194 79.0778C55.3335 77.4112 53.428 76.2972 51.346 75.1935C52.2492 74.8848 53.1847 74.6057 54.0511 74.2047L53.3275 73.2044C54.7816 72.7583 56.1966 72.2882 57.6017 71.7036C58.0463 70.9828 58.4445 70.2235 58.8619 69.486C59.2269 69.0371 59.506 68.4886 59.8029 67.9916L59.9323 68.053L60.4909 66.9735L61.937 64.6141Z"/>
	<path fill="#FFEB87" d="M61.937 64.6141C62.3576 65.009 62.7233 65.4817 63.0999 65.9192L64.3133 67.0747C64.9516 67.7092 65.5731 68.367 66.3122 68.886C66.9123 69.5396 67.4805 70.2042 68.2356 70.6834L68.2894 71.6811C65.7363 71.0739 63.9206 68.4341 62.2892 66.5247L61.7167 67.3471C61.3519 67.977 61.0088 68.6586 60.5994 69.2581C58.8984 72.3345 57.3627 73.0398 54.0511 74.2047L53.3275 73.2044C54.7816 72.7583 56.1966 72.2882 57.6017 71.7036C58.0463 70.9828 58.4445 70.2235 58.8619 69.486C59.2269 69.0371 59.506 68.4886 59.8029 67.9916L59.9323 68.053L60.4909 66.9735L61.937 64.6141Z"/>
</svg>
