<?xml version="1.0" encoding="utf-8" ?>
<svg xmlns="http://www.w3.org/2000/svg" xmlns:xlink="http://www.w3.org/1999/xlink" width="119" height="105">
	<path fill="#FEED89" d="M0 0L55.5444 0L63.8993 0L118.562 0C118.82 0.392694 118.938 0.767302 118.967 1.2344C119.431 8.63943 119.019 17.6561 119.015 25.218C119.013 28.3092 119.436 35.3764 118.893 38.0188C118.856 38.1992 118.793 38.3717 118.72 38.5404C119.296 40.1242 119.395 50.4375 118.695 51.9085C118.686 51.9258 118.677 51.9427 118.669 51.9598C119.383 53.6176 119.341 63.0121 118.719 64.6992C119.297 66.2925 119.284 103.53 118.743 104.678C118.691 104.79 118.63 104.896 118.562 105L67.6947 105L51.5254 105L0 105L0 63.8348L0 52.0479L0 51.0967L0 39.5213L0 0ZM36.7424 87.3241C36.2575 89.9125 36.6234 98.4755 36.8737 101.456C38.8451 102.087 40.8126 102.632 42.8374 103.064C45.2169 103.572 49.5043 103.929 51.5254 105L67.6947 105L118.562 105C118.63 104.896 118.691 104.79 118.743 104.678C119.284 103.53 119.297 66.2925 118.719 64.6992C119.341 63.0121 119.383 53.6176 118.669 51.9598C117.78 60.8632 110.307 70.5499 103.558 76.0731C89.2232 87.8042 69.4896 92.068 51.3126 90.2404C46.3221 89.7386 41.5844 88.5654 36.7424 87.3241ZM0 52.0479L0 63.8348L0 105L51.5254 105C49.5043 103.929 45.2169 103.572 42.8374 103.064C40.8126 102.632 38.8451 102.087 36.8737 101.456C36.6234 98.4755 36.2575 89.9125 36.7424 87.3241C32.9314 86.01 29.2063 84.5568 25.6238 82.6978C16.1795 77.7971 7.87717 70.3656 3.27953 60.6362C2.01533 57.9609 1.18453 55.2048 0.294208 52.3962L0 52.0479ZM0 0L0 39.5213L0.302837 39.4982C0.54441 37.7853 1.0141 36.0616 1.56691 34.4255C7.40688 17.141 25.0697 6.00992 42.1849 2.17142C44.9666 1.54756 53.7922 0.885564 55.4837 0.0316105C55.5041 0.021324 55.5242 0.0105368 55.5444 0L0 0ZM63.8993 0L63.9635 0.0324349C65.7928 0.945285 74.2666 1.55332 77.1421 2.20998C94.1004 6.0827 111.579 17.1018 117.452 34.198C117.941 35.6241 118.333 37.0836 118.72 38.5404C118.793 38.3717 118.856 38.1992 118.893 38.0188C119.436 35.3764 119.013 28.3092 119.015 25.218C119.019 17.6561 119.431 8.63943 118.967 1.2344C118.938 0.767302 118.82 0.392694 118.562 0L63.8993 0Z"/>
	<path fill="#FEDD32" d="M95.3343 61.0603C99.2001 62.9687 101.986 64.0926 103.484 68.5377Q103.522 68.649 103.557 68.7613C94.8996 78.8892 78.4501 84.4958 65.5016 85.504Q62.3488 85.7782 59.184 85.7815Q56.0193 85.7848 52.8659 85.5172Q49.7125 85.2496 46.5936 84.7131Q43.4747 84.1766 40.4131 83.3751C39.1763 83.0609 36.8793 82.6286 35.9129 81.7888C35.7678 81.6626 35.658 81.5169 35.5966 81.3332Q35.5171 80.8754 35.4688 80.4133C35.1006 76.8218 36.5243 73.8869 38.7338 71.1733C44.4689 73.7607 51.1864 74.9105 57.4461 75.1745C67.8448 75.6131 79.2376 72.8892 87.9432 67.1372C90.6373 65.3571 92.9644 63.2372 95.3343 61.0603Z"/>
	<path fill="#FEDD32" d="M45.493 4.13228C47.3557 3.40167 49.5357 3.28523 51.5123 3.06522Q53.7229 2.83889 55.9434 2.75243Q58.1639 2.66597 60.3855 2.71973Q62.607 2.7735 64.8207 2.96727Q67.0344 3.16104 69.2315 3.49404Q71.4286 3.82705 73.6003 4.29796Q75.772 4.76887 77.9097 5.37582Q80.0474 5.98277 82.1426 6.72334Q84.2377 7.46391 86.282 8.33514C97.2541 13.1263 107.479 21.2603 111.962 32.6681C114.28 38.5644 115.364 48.3124 112.751 54.2503C112.297 55.2825 111.636 56.206 110.549 56.6232C108.609 57.368 106.037 56.3893 104.243 55.5666C103.188 55.0827 100.951 53.9714 100.305 53.0141Q101.04 51.1634 101.491 49.2236Q101.942 47.2837 102.097 45.2983C102.566 38.6182 99.8051 32.1154 95.4686 27.1401C85.195 15.3532 68.2283 11.2393 53.1431 12.6586C51.1569 12.8455 43.1003 14.6443 42.7162 14.6055C42.2781 14.5612 41.9077 14.1674 41.6449 13.8238C41.0758 13.0797 41.0701 12.0005 41.1835 11.1183C41.5734 8.08587 43.1201 5.96986 45.493 4.13228Z"/>
	<path fill="#FEDD32" d="M0 52.0479L0.294208 52.3962C1.18453 55.2048 2.01533 57.9609 3.27953 60.6362C7.87717 70.3656 16.1795 77.7971 25.6238 82.6978C29.2063 84.5568 32.9314 86.01 36.7424 87.3241C36.2575 89.9125 36.6234 98.4755 36.8737 101.456C31.5337 99.5954 26.4436 97.2849 21.704 94.1815C10.7364 87.0001 2.9924 76.7392 0.278819 63.7551L0 63.8348L0 52.0479Z"/>
	<defs>
		<linearGradient id="gradient_0" gradientUnits="userSpaceOnUse" x1="98.671715" y1="95.220673" x2="59.136513" y2="61.807549">
			<stop offset="0" stop-color="#F49207"/>
			<stop offset="1" stop-color="#FEC825"/>
		</linearGradient>
	</defs>
	<path fill="url(#gradient_0)" d="M36.7424 87.3241C41.5844 88.5654 46.3221 89.7386 51.3126 90.2404C69.4896 92.068 89.2232 87.8042 103.558 76.0731C110.307 70.5499 117.78 60.8632 118.669 51.9598C119.383 53.6176 119.341 63.0121 118.719 64.6992C119.297 66.2925 119.284 103.53 118.743 104.678C118.691 104.79 118.63 104.896 118.562 105L67.6947 105L51.5254 105C49.5043 103.929 45.2169 103.572 42.8374 103.064C40.8126 102.632 38.8451 102.087 36.8737 101.456C36.6234 98.4755 36.2575 89.9125 36.7424 87.3241ZM67.6947 105L118.562 105C118.63 104.896 118.691 104.79 118.743 104.678C119.284 103.53 119.297 66.2925 118.719 64.6992C114.987 78.8231 107 88.6915 94.5412 95.9489Q90.8591 98.0562 86.9422 99.6859Q83.0253 101.316 78.9351 102.442C76.4187 103.109 69.3865 103.995 67.6947 105Z"/>
	<path fill="#FEFEFE" d="M10.7348 24.092C10.6725 23.8874 10.6479 23.7018 10.7341 23.4967C11.1379 22.5352 12.5501 21.2718 13.2845 20.5166Q15.4032 18.3602 17.7413 16.4439Q20.0794 14.5276 22.6099 12.8736Q25.1403 11.2196 27.8338 9.84705Q30.5273 8.47446 33.3527 7.39919C35.2958 6.63744 43.1586 3.85285 44.857 3.85472C44.9841 3.85486 45.3562 4.07256 45.493 4.13228C43.1201 5.96986 41.5734 8.08587 41.1835 11.1183C41.0701 12.0005 41.0758 13.0797 41.6449 13.8238C41.9077 14.1674 42.2781 14.5612 42.7162 14.6055C43.1003 14.6443 51.1569 12.8455 53.1431 12.6586C68.2283 11.2393 85.195 15.3532 95.4686 27.1401C99.8051 32.1154 102.566 38.6182 102.097 45.2983Q101.942 47.2837 101.491 49.2236Q101.04 51.1634 100.305 53.0141C98.924 56.0583 97.18 58.3288 95.3343 61.0603C92.9644 63.2372 90.6373 65.3571 87.9432 67.1372C79.2376 72.8892 67.8448 75.6131 57.4461 75.1745C51.1864 74.9105 44.4689 73.7607 38.7338 71.1733C36.5243 73.8869 35.1006 76.8218 35.4688 80.4133Q35.5171 80.8754 35.5966 81.3332C35.476 81.5203 35.2059 81.5861 35.0055 81.6654C31.207 80.9932 22.7301 75.7998 19.5011 73.331C11.9927 67.5903 5.12756 58.7581 3.86875 49.1598C3.69986 47.8721 3.71263 46.0336 4.53258 44.9656C4.16953 44.9552 3.98576 44.792 3.71312 44.575C3.55757 44.0782 3.48027 43.5866 3.47469 43.0654C3.40851 36.8878 6.35199 28.546 10.7348 24.092Z"/>
	<path fill="#FEDD32" d="M10.7348 24.092C13.467 22.8558 16.2989 22.7086 19.1184 23.7697C20.6844 24.3591 22.0042 25.2797 23.3542 26.2507C18.0459 32.7035 15.9957 38.5194 16.4712 46.864C14.5685 48.1281 12.5515 49.3907 10.1528 48.8939C7.89928 48.4272 6.1253 46.5017 4.53258 44.9656C4.16953 44.9552 3.98576 44.792 3.71312 44.575C3.55757 44.0782 3.48027 43.5866 3.47469 43.0654C3.40851 36.8878 6.35199 28.546 10.7348 24.092Z"/>
	<path fill="#FE7901" d="M21.3404 47.3002C20.6219 44.6524 20.8037 41.3211 21.3102 38.6518C22.6092 31.8075 27.4324 26.167 33.0661 22.3301C43.3875 15.3007 56.8196 13.5124 68.9232 15.8236C78.1612 17.5876 87.7931 22.4193 93.1761 30.3791C96.4219 35.1787 97.8706 41.0601 96.7627 46.7987C95.5634 46.4948 95.1799 44.9048 94.6542 43.9084C92.8184 40.4283 90.0576 37.2561 87.0629 34.7321C86.3511 36.379 86.5896 39.0578 86.4206 40.8807C85.609 42.1599 77.0544 49.6745 76.0284 49.907C75.9543 49.9238 75.8853 49.9354 75.8097 49.9447C75.6512 47.6123 75.4698 45.1753 74.9533 42.894C78.4497 40.1021 82.9777 35.9216 86.7256 33.7433L86.9692 33.199C86.4289 32.553 82.7688 32.1558 81.688 31.7013C80.2614 30.6536 78.7712 29.8866 77.1334 29.2184C75.017 28.3549 69.0859 26.1537 67.0109 26.4448C66.7577 26.4803 66.3541 26.7211 66.1054 26.8257C63.4534 24.5699 61.1708 21.7193 58.8609 19.1145C56.5991 21.6802 54.3588 24.367 51.8567 26.6988C48.7114 25.9582 40.8784 28.8061 38.1152 30.5027C37.6187 30.8075 37.1512 31.1744 36.7035 31.5459C34.3946 32.4385 32.3876 32.647 29.9574 32.8968C34.252 36.1189 38.3514 39.6676 42.7176 42.7773C42.409 45.1915 42.1846 47.6521 41.7832 50.0503C38.8502 48.3478 34.1638 43.696 31.4724 41.3443C30.7925 39.1793 30.7496 37.0022 30.6617 34.7582C28.5593 36.8951 26.1719 39.2101 24.5237 41.7201C23.6408 43.0647 22.9165 46.2587 21.7372 47.0614C21.6079 47.1495 21.4811 47.2308 21.3404 47.3002Z"/>
	<path fill="#FEED89" d="M51.8567 26.6988C54.3588 24.367 56.5991 21.6802 58.8609 19.1145C61.1708 21.7193 63.4534 24.5699 66.1054 26.8257C66.3541 26.7211 66.7577 26.4803 67.0109 26.4448C69.0859 26.1537 75.017 28.3549 77.1334 29.2184C78.7712 29.8866 80.2614 30.6536 81.688 31.7013C82.7688 32.1558 86.4289 32.553 86.9692 33.199L86.7256 33.7433C82.9777 35.9216 78.4497 40.1021 74.9533 42.894C75.4698 45.1753 75.6512 47.6123 75.8097 49.9447C76.0579 51.7426 76.5811 53.8371 76.5385 55.6337C70.7412 53.6128 64.6509 52.4728 58.8312 50.5153C53.1074 52.4828 47.0726 53.9002 41.2388 55.5306C41.3707 53.702 41.5947 51.8742 41.7832 50.0503C42.1846 47.6521 42.409 45.1915 42.7176 42.7773C38.3514 39.6676 34.252 36.1189 29.9574 32.8968C32.3876 32.647 34.3946 32.4385 36.7035 31.5459C37.1512 31.1744 37.6187 30.8075 38.1152 30.5027C40.8784 28.8061 48.7114 25.9582 51.8567 26.6988Z"/>
	<path fill="#FEB431" d="M36.7035 31.5459C37.1512 31.1744 37.6187 30.8075 38.1152 30.5027C40.8784 28.8061 48.7114 25.9582 51.8567 26.6988C51.1967 27.5213 50.5099 28.492 49.6665 29.1311C46.8417 31.2714 41.7538 31.2712 38.3476 31.7932L36.7035 31.5459Z"/>
	<path fill="#FEB431" d="M66.1054 26.8257C66.3541 26.7211 66.7577 26.4803 67.0109 26.4448C69.0859 26.1537 75.017 28.3549 77.1334 29.2184C78.7712 29.8866 80.2614 30.6536 81.688 31.7013L79.7895 31.9604C77.3814 31.1859 74.4862 31.1233 71.9717 30.7462C69.108 30.3167 67.7504 29.0516 66.1054 26.8257Z"/>
	<path fill="#FEDD32" d="M58.793 22.3941Q59.0704 22.8199 59.3757 23.2261C65.7374 31.6192 67.0839 31.4135 77.1348 32.7853C77.9014 32.889 79.1881 32.8944 79.7749 33.412C79.0271 35.1538 72.7053 39.3783 70.9252 40.8702C71.6149 43.9525 71.7369 47.157 72.1353 50.2869C67.7666 48.9495 63.2909 47.9188 58.9478 46.517C54.4486 47.7662 49.8492 48.8917 45.4074 50.3226C45.9296 47.2366 46.0544 43.9007 46.8634 40.8978C45.6361 39.827 38.2023 34.4374 38.0497 33.4945L38.4507 33.1833C42.6293 32.3446 46.9139 31.8574 51.1169 31.0815C53.9371 28.7349 56.7263 25.416 58.793 22.3941Z"/>
	<path fill="#FEB431" d="M87.0629 34.7321C90.0576 37.2561 92.8184 40.4283 94.6542 43.9084C95.1799 44.9048 95.5634 46.4948 96.7627 46.7987C95.4473 53.6823 90.5718 59.4473 84.9028 63.2911C74.845 70.1108 61.2791 72.1117 49.4395 69.8248C40.1028 68.0214 30.3701 63.374 24.9192 55.3069C23.3957 53.0521 21.8029 50.005 21.3404 47.3002C21.4811 47.2308 21.6079 47.1495 21.7372 47.0614C22.9165 46.2587 23.6408 43.0647 24.5237 41.7201C26.1719 39.2101 28.5593 36.8951 30.6617 34.7582C30.7496 37.0022 30.7925 39.1793 31.4724 41.3443C34.1638 43.696 38.8502 48.3478 41.7832 50.0503C41.5947 51.8742 41.3707 53.702 41.2388 55.5306C47.0726 53.9002 53.1074 52.4828 58.8312 50.5153C64.6509 52.4728 70.7412 53.6128 76.5385 55.6337C76.5811 53.8371 76.0579 51.7426 75.8097 49.9447C75.8853 49.9354 75.9543 49.9238 76.0284 49.907C77.0544 49.6745 85.609 42.1599 86.4206 40.8807C86.5896 39.0578 86.3511 36.379 87.0629 34.7321Z"/>
	<path fill="#FE7901" d="M58.8312 50.5153C64.6509 52.4728 70.7412 53.6128 76.5385 55.6337C76.8518 58.0489 76.0952 61.3206 75.8372 63.7624Q67.3388 61.2433 58.796 58.8789Q50.2779 61.2927 41.7852 63.7945C41.7398 61.0489 41.4068 58.274 41.2388 55.5306C47.0726 53.9002 53.1074 52.4828 58.8312 50.5153Z"/>
</svg>
