<?xml version="1.0" encoding="utf-8" ?>
<svg xmlns="http://www.w3.org/2000/svg" xmlns:xlink="http://www.w3.org/1999/xlink" width="128" height="128">
	<path fill="#E7FEFE" d="M63.926 17.7698Q66.6694 18.4971 69.4404 19.111C68.8617 20.006 67.8341 21.2119 66.9587 21.8295C66.2269 20.8685 63.6377 20.4661 62.4083 19.7981C62.9966 19.1645 63.4585 18.4952 63.926 17.7698Z"/>
	<path fill="#FEFEFE" d="M50.4525 20.4123C54.3691 19.6221 60.0839 17.664 63.926 17.7698C63.4585 18.4952 62.9966 19.1645 62.4083 19.7981C63.6377 20.4661 66.2269 20.8685 66.9587 21.8295C65.3544 23.5367 63.6103 25.1714 62.0618 26.9231C61.9194 27.4272 44.1195 46.373 42.722 47.1781C42.339 47.3987 41.8247 47.5295 41.3962 47.6246L42.3208 48.5916C39.8115 48.0722 37.0314 47.6845 34.6573 46.7291C32.9817 46.7914 31.6694 45.4475 29.8118 45.6026L28.8806 44.703C28.5148 43.8645 28.4806 43.1141 28.535 42.2152C28.5515 41.1544 28.0767 40.158 27.9813 39.0949C27.7975 37.0469 27.9701 34.9917 28.0443 32.9422Q28.1517 32.6465 28.2274 32.3411C28.5052 31.2214 28.9146 27.6796 28.3676 26.7807C28.0596 27.1903 27.7501 27.5789 27.3957 27.9494L27.4637 26.9574C28.2144 26.102 28.883 25.3762 29.8764 24.7886L50.4525 20.4123Z"/>
	<path fill="#CDFDFE" d="M29.8764 24.7886L50.4525 20.4123C49.8642 21.8358 48.3059 23.5356 46.9887 24.3617C41.8722 29.3061 36.509 34.4101 30.9959 38.9036C29.9136 39.9578 29.0891 40.7686 28.535 42.2152C28.5515 41.1544 28.0767 40.158 27.9813 39.0949C27.7975 37.0469 27.9701 34.9917 28.0443 32.9422Q28.1517 32.6465 28.2274 32.3411C28.5052 31.2214 28.9146 27.6796 28.3676 26.7807C28.0596 27.1903 27.7501 27.5789 27.3957 27.9494L27.4637 26.9574C28.2144 26.102 28.883 25.3762 29.8764 24.7886Z"/>
	<path fill="#E7FEFE" d="M29.8764 24.7886L50.4525 20.4123C49.8642 21.8358 48.3059 23.5356 46.9887 24.3617C45.8494 23.7804 34.3695 26.3575 32.314 27.0282C31.789 27.1995 31.5888 27.2672 31.2221 27.6846C30.3409 31.0343 30.8508 35.1174 30.5973 38.6011L30.9959 38.9036C29.9136 39.9578 29.0891 40.7686 28.535 42.2152C28.5515 41.1544 28.0767 40.158 27.9813 39.0949C27.7975 37.0469 27.9701 34.9917 28.0443 32.9422Q28.1517 32.6465 28.2274 32.3411C28.5052 31.2214 28.9146 27.6796 28.3676 26.7807C28.0596 27.1903 27.7501 27.5789 27.3957 27.9494L27.4637 26.9574C28.2144 26.102 28.883 25.3762 29.8764 24.7886Z"/>
	<path fill="#CDFDFE" d="M62.4083 19.7981C63.6377 20.4661 66.2269 20.8685 66.9587 21.8295C65.3544 23.5367 63.6103 25.1714 62.0618 26.9231C61.9194 27.4272 44.1195 46.373 42.722 47.1781C42.339 47.3987 41.8247 47.5295 41.3962 47.6246L42.3208 48.5916C39.8115 48.0722 37.0314 47.6845 34.6573 46.7291C35.4177 46.5309 35.8093 46.019 36.3128 45.4569C39.4027 41.5699 43.6436 38.0242 47.1947 34.525C52.17 29.6225 57.0445 24.2558 62.4083 19.7981Z"/>
	<path fill="#E7FEFE" d="M41.8565 47.2337C43.8426 45.5618 45.6315 43.5244 47.443 41.6603L57.0052 31.8179C58.5271 30.2552 60.2403 28.0986 62.0618 26.9231C61.9194 27.4272 44.1195 46.373 42.722 47.1781C42.339 47.3987 41.8247 47.5295 41.3962 47.6246L42.3208 48.5916C39.8115 48.0722 37.0314 47.6845 34.6573 46.7291C35.4177 46.5309 35.8093 46.019 36.3128 45.4569C36.5223 45.6507 40.8969 46.779 41.8565 47.2337Z"/>
	<path fill="#16E1E3" d="M97.7996 25.9582C100.186 28.1916 102.255 30.8695 104.38 33.354L114.82 45.5414C116.638 47.6572 118.487 50.07 120.584 51.9147L120.67 52.2389L120.587 52.5286L119.879 52.5209C115.905 50.8076 111.685 49.5049 107.601 48.0717C104.443 46.963 100.818 45.3018 97.5022 44.865C98.2214 41.802 97.7895 29.7704 97.7996 25.9582Z"/>
	<path fill="#90FEFD" d="M27.4637 26.9574L27.3957 27.9494C27.7501 27.5789 28.0596 27.1903 28.3676 26.7807C28.9146 27.6796 28.5052 31.2214 28.2274 32.3411Q28.1517 32.6465 28.0443 32.9422C27.9701 34.9917 27.7975 37.0469 27.9813 39.0949C28.0767 40.158 28.5515 41.1544 28.535 42.2152C28.4806 43.1141 28.5148 43.8645 28.8806 44.703C27.8602 45.2093 26.8993 45.575 25.7952 45.8561C24.7517 46.6065 7.44503 52.5647 6.55518 52.4603L7.91606 50.626C9.40671 49.5913 11.9596 45.8533 13.2812 44.2416L27.4637 26.9574Z"/>
	<path fill="#CDFDFE" d="M28.0443 32.9422C27.9701 34.9917 27.7975 37.0469 27.9813 39.0949C28.0767 40.158 28.5515 41.1544 28.535 42.2152C28.4806 43.1141 28.5148 43.8645 28.8806 44.703C27.8602 45.2093 26.8993 45.575 25.7952 45.8561L25.6579 45.4886L26.1204 45.1309L26.1004 45.0147L24.9227 45.1957C25.0754 44.8668 26.0558 44.6176 26.4199 44.4393C27.1358 44.0886 27.6719 43.4638 27.8334 42.6734C28.3718 40.0398 26.7412 36.6769 28.0443 32.9422Z"/>
	<defs>
		<linearGradient id="gradient_0" gradientUnits="userSpaceOnUse" x1="84.385406" y1="50.686981" x2="59.262897" y2="27.761158">
			<stop offset="0" stop-color="#99FEFD"/>
			<stop offset="1" stop-color="white"/>
		</linearGradient>
	</defs>
	<path fill="url(#gradient_0)" d="M69.4404 19.111C78.7014 21.4056 88.1299 23.1119 97.355 25.5185L97.7996 25.9582C97.7895 29.7704 98.2214 41.802 97.5022 44.865L97.3613 45.1007C97.1034 47.5657 95.9747 50.2716 95.186 52.623C93.7215 56.9884 92.1485 61.3359 90.7973 65.7369C90.3421 67.2196 89.6073 69.0846 89.5961 70.6352L88.8485 71.6802C88.3534 71.4382 87.8151 71.256 87.3021 71.0531C83.991 67.4968 74.8021 62.2568 70.2858 59.1678C68.3651 57.8541 66.7045 56.3004 64.8998 54.8471L65.2276 53.8604C64.2874 54.2245 63.1952 54.5404 62.3499 55.0873C61.1166 55.1983 61.2928 54.4089 60.3999 53.9393C60.0878 53.7751 59.4505 53.7182 59.0887 53.634C53.6667 51.6423 47.8486 50.3177 42.3208 48.5916L41.3962 47.6246C41.8247 47.5295 42.339 47.3987 42.722 47.1781C44.1195 46.373 61.9194 27.4272 62.0618 26.9231C63.6103 25.1714 65.3544 23.5367 66.9587 21.8295C67.8341 21.2119 68.8617 20.006 69.4404 19.111Z"/>
	<path fill="#90FEFD" d="M88.1516 47.5537C88.1274 47.4702 88.1218 47.4595 88.1079 47.3598C87.9797 46.4354 88.0016 45.1814 88.3208 44.2999C88.7984 42.9808 93.1711 36.3857 94.2052 34.9933C94.8059 34.1843 95.4957 33.2165 96.5581 33.0579C96.6985 33.136 97.0195 33.2692 97.1064 33.3911C97.3268 33.7001 97.2367 42.9638 97.0767 44.0507C96.4878 44.7095 96.033 44.72 95.1931 44.9518L95.0165 45.4361C92.7496 46.2179 90.4537 46.8855 88.1516 47.5537Z"/>
	<path fill="#16E1E3" d="M95.0165 45.4361C95.781 45.4032 96.6 45.213 97.3613 45.1007C97.1034 47.5657 95.9747 50.2716 95.186 52.623C93.7215 56.9884 92.1485 61.3359 90.7973 65.7369C90.3421 67.2196 89.6073 69.0846 89.5961 70.6352L88.8485 71.6802C88.3534 71.4382 87.8151 71.256 87.3021 71.0531C83.991 67.4968 74.8021 62.2568 70.2858 59.1678C68.3651 57.8541 66.7045 56.3004 64.8998 54.8471L65.2276 53.8604C67.7362 53.5064 70.424 52.5183 72.874 51.8346L88.1516 47.5537C90.4537 46.8855 92.7496 46.2179 95.0165 45.4361Z"/>
	<defs>
		<linearGradient id="gradient_1" gradientUnits="userSpaceOnUse" x1="73.012253" y1="110.70277" x2="56.901497" y2="43.992077">
			<stop offset="0" stop-color="#00788D"/>
			<stop offset="1" stop-color="#03A5B0"/>
		</linearGradient>
	</defs>
	<path fill="url(#gradient_1)" d="M28.8806 44.703L29.8118 45.6026C31.6694 45.4475 32.9817 46.7914 34.6573 46.7291C37.0314 47.6845 39.8115 48.0722 42.3208 48.5916C47.8486 50.3177 53.6667 51.6423 59.0887 53.634C59.4505 53.7182 60.0878 53.7751 60.3999 53.9393C61.2928 54.4089 61.1166 55.1983 62.3499 55.0873C63.1952 54.5404 64.2874 54.2245 65.2276 53.8604L64.8998 54.8471C66.7045 56.3004 68.3651 57.8541 70.2858 59.1678C74.8021 62.2568 83.991 67.4968 87.3021 71.0531C87.8151 71.256 88.3534 71.4382 88.8485 71.6802L89.5961 70.6352C89.6073 69.0846 90.3421 67.2196 90.7973 65.7369C92.1485 61.3359 93.7215 56.9884 95.186 52.623C95.9747 50.2716 97.1034 47.5657 97.3613 45.1007L97.5022 44.865C100.818 45.3018 104.443 46.963 107.601 48.0717C111.685 49.5049 115.905 50.8076 119.879 52.5209L120.587 52.5286C118.778 54.6159 110.192 64.588 108.69 65.3171C97.3189 78.0417 85.3294 90.2092 73.8471 102.832C70.6641 106.332 66.2983 109.919 63.9428 113.99C63.5436 113.911 63.0921 113.815 62.745 113.593C60.9745 112.465 54.5053 104.765 52.5659 102.713L23.7341 72.0051L13.618 61.2674C11.3711 58.8742 9.21552 56.3872 6.80155 54.1588C6.36414 53.755 6.38384 53.5904 6.27128 53.0064L6.55518 52.4603C7.44503 52.5647 24.7517 46.6065 25.7952 45.8561C26.8993 45.575 27.8602 45.2093 28.8806 44.703Z"/>
	<path fill="#00687D" d="M119.879 52.5209L120.587 52.5286C118.778 54.6159 110.192 64.588 108.69 65.3171L108.489 64.9574C109.269 64.0397 111.433 62.4208 111.74 61.3841C111.468 61.1719 111.366 61.0509 110.995 61.0864C110.187 61.1636 109.302 62.1002 108.568 62.4758C107.492 63.0259 106.187 63.26 105.053 63.8271C102.516 65.0968 100.185 66.7657 97.7139 68.1583C95.1886 69.5813 92.3929 70.7728 89.999 72.3922Q88.9408 73.1203 88.1571 74.138C87.8189 74.5784 86.9607 76.2924 86.5434 76.3565L87.031 76.0193L86.9156 75.6075C87.657 74.351 88.4813 73.1065 88.8485 71.6802L89.5961 70.6352C91.9801 69.733 118.567 53.9032 119.879 52.5209Z"/>
	<path fill="#01A2B8" d="M97.5022 44.865C100.818 45.3018 104.443 46.963 107.601 48.0717C111.685 49.5049 115.905 50.8076 119.879 52.5209C118.567 53.9032 91.9801 69.733 89.5961 70.6352C89.6073 69.0846 90.3421 67.2196 90.7973 65.7369C92.1485 61.3359 93.7215 56.9884 95.186 52.623C95.9747 50.2716 97.1034 47.5657 97.3613 45.1007L97.5022 44.865Z"/>
	<path fill="#16E1E3" d="M28.8806 44.703L29.8118 45.6026C30.7401 49.1694 33.1767 54.547 33.6348 57.801C34.0908 59.1399 34.6068 60.4893 34.9858 61.8506C35.4883 63.4183 37.3583 70.2974 38.4512 71.0351L38.4575 71.226C37.9733 71.4345 37.8544 71.4522 37.3481 71.2444C34.6784 70.1486 31.8876 68.1247 29.3767 66.6539L11.2033 55.9201C9.98855 55.1959 7.54173 53.2076 6.27128 53.0064L6.55518 52.4603C7.44503 52.5647 24.7517 46.6065 25.7952 45.8561C26.8993 45.575 27.8602 45.2093 28.8806 44.703Z"/>
	<defs>
		<linearGradient id="gradient_2" gradientUnits="userSpaceOnUse" x1="64.689484" y1="76.747093" x2="58.85339" y2="56.251957">
			<stop offset="0" stop-color="#00B4C9"/>
			<stop offset="1" stop-color="#1EE3ED"/>
		</linearGradient>
	</defs>
	<path fill="url(#gradient_2)" d="M29.8118 45.6026C31.6694 45.4475 32.9817 46.7914 34.6573 46.7291C37.0314 47.6845 39.8115 48.0722 42.3208 48.5916C47.8486 50.3177 53.6667 51.6423 59.0887 53.634C59.4505 53.7182 60.0878 53.7751 60.3999 53.9393C61.2928 54.4089 61.1166 55.1983 62.3499 55.0873C63.1952 54.5404 64.2874 54.2245 65.2276 53.8604L64.8998 54.8471C66.7045 56.3004 68.3651 57.8541 70.2858 59.1678C74.8021 62.2568 83.991 67.4968 87.3021 71.0531C86.9778 71.1975 86.6058 71.3319 86.2496 71.3568C83.3593 71.5591 80.3598 71.4388 77.4602 71.4505L61.2832 71.5059C57.2058 71.5164 41.3903 72.0285 38.4575 71.226L38.4512 71.0351C37.3583 70.2974 35.4883 63.4183 34.9858 61.8506C34.6068 60.4893 34.0908 59.1399 33.6348 57.801C33.1767 54.547 30.7401 49.1694 29.8118 45.6026Z"/>
	<path fill="#90FEFD" d="M29.8118 45.6026C31.6694 45.4475 32.9817 46.7914 34.6573 46.7291C37.0314 47.6845 39.8115 48.0722 42.3208 48.5916C47.8486 50.3177 53.6667 51.6423 59.0887 53.634C59.4505 53.7182 60.0878 53.7751 60.3999 53.9393C61.2928 54.4089 61.1166 55.1983 62.3499 55.0873C54.8424 60.8539 45.6759 65.0325 38.4512 71.0351C37.3583 70.2974 35.4883 63.4183 34.9858 61.8506C34.6068 60.4893 34.0908 59.1399 33.6348 57.801C33.1767 54.547 30.7401 49.1694 29.8118 45.6026Z"/>
	<path fill="#CDFDFE" d="M29.8118 45.6026C31.6694 45.4475 32.9817 46.7914 34.6573 46.7291C37.0314 47.6845 39.8115 48.0722 42.3208 48.5916C47.8486 50.3177 53.6667 51.6423 59.0887 53.634C52.5485 54.7382 39.4982 49.5993 32.4747 47.9444C33.0903 50.4981 33.6632 53.7572 34.8385 56.1087C34.7641 56.7628 34.7005 57.4034 34.5126 58.0372C34.0973 58.0434 33.9861 57.9923 33.6348 57.801C33.1767 54.547 30.7401 49.1694 29.8118 45.6026Z"/>
</svg>
