<svg xmlns="http://www.w3.org/2000/svg" xmlns:xlink="http://www.w3.org/1999/xlink">
  <defs>
    <symbol fill="none" viewBox="0 0 30 29" id="__aim__">
      <path d="M29.74 13.27h-3.956a10.36 10.36 0 0 0-9.056-9.056V.26A.26.26 0 0 0 16.469 0h-1.942a.26.26 0 0 0-.259.259v3.955a10.36 10.36 0 0 0-9.056 9.056H1.257a.26.26 0 0 0-.259.259v1.942a.26.26 0 0 0 .259.259h3.955a10.36 10.36 0 0 0 9.056 9.056v3.955a.26.26 0 0 0 .26.259h1.941a.26.26 0 0 0 .259-.259v-3.955a10.36 10.36 0 0 0 9.056-9.056h3.955a.26.26 0 0 0 .259-.259v-1.942a.26.26 0 0 0-.259-.259zm-14.242 9.127A7.896 7.896 0 0 1 7.601 14.5a7.896 7.896 0 0 1 7.897-7.897 7.896 7.896 0 0 1 7.897 7.897 7.896 7.896 0 0 1-7.897 7.897z" fill="#fff"/>
      <path d="M15.498 10.616c-1.039 0-2.01.402-2.744 1.14a3.85 3.85 0 0 0-1.14 2.744 3.85 3.85 0 0 0 1.14 2.745 3.87 3.87 0 0 0 2.744 1.14c1.036 0 2.01-.405 2.745-1.14a3.87 3.87 0 0 0 1.14-2.745c0-1.036-.405-2.01-1.14-2.745a3.838 3.838 0 0 0-2.745-1.139z" fill="#fff"/>
    </symbol>
  </defs>
  <use href="#__aim__"/>
</svg>
