<svg xmlns="http://www.w3.org/2000/svg" xmlns:xlink="http://www.w3.org/1999/xlink">
  <defs>
    <symbol fill="none" viewBox="0 0 17 17" id="__clock__">
      <path d="M8.5 1.063a7.438 7.438 0 1 0 .001 14.875A7.438 7.438 0 0 0 8.5 1.062zm0 13.613a6.177 6.177 0 0 1 0-12.352 6.177 6.177 0 0 1 0 12.352z" fill="#fff" />
      <path d="M11.4 10.602L9.033 8.89V4.781a.133.133 0 0 0-.133-.133h-.798a.133.133 0 0 0-.133.133v4.572c0 .043.02.083.055.108l2.745 2.002c.06.044.143.03.186-.028l.475-.647a.132.132 0 0 0-.03-.186z" fill="#fff" />
    </symbol>
  </defs>
  <use href="#__clock__"/>
</svg>