<svg xmlns="http://www.w3.org/2000/svg" xmlns:xlink="http://www.w3.org/1999/xlink">
  <defs>
    <symbol fill="none" viewBox="0 0 37 33" id="__discord-classic__">
      <path fill="#fff" d="M1 5h32v25H1z" />
      <path d="M31.939 0L4.155.779C1.807.779 0 .743 0 3.111v28.085c0 2.368 4.663 0 7.01 0l16.36.436H36.093l.26-28.521C36.353.743 34.286 0 31.939 0zm-7.863 25.961s-.748-.893-1.371-1.682c2.721-.77 3.76-2.472 3.76-2.472a11.87 11.87 0 0 1-2.389 1.225 13.676 13.676 0 0 1-3.012.893c-1.994.374-3.822.27-5.38-.02a17.448 17.448 0 0 1-3.054-.893 12.169 12.169 0 0 1-1.517-.707c-.062-.041-.124-.062-.186-.104-.042-.02-.063-.041-.083-.062-.374-.208-.582-.353-.582-.353s.997 1.662 3.635 2.451c-.623.79-1.392 1.724-1.392 1.724-4.59-.145-6.335-3.157-6.335-3.157 0-6.69 2.99-12.111 2.99-12.111 2.992-2.244 5.838-2.181 5.838-2.181l.208.25c-3.74 1.08-5.463 2.72-5.463 2.72s.457-.249 1.225-.602c2.223-.976 3.989-1.246 4.716-1.309.124-.02.228-.041.353-.041 1.392-.182 2.8-.196 4.196-.042 1.973.229 4.092.81 6.253 1.994 0 0-1.641-1.558-5.173-2.638l.291-.332s2.846-.063 5.837 2.181c0 0 2.992 5.422 2.992 12.11 0 0-1.766 3.013-6.357 3.158zm-9.66-9.7c-1.184 0-2.118 1.038-2.118 2.305 0 1.267.955 2.306 2.118 2.306 1.185 0 2.12-1.039 2.12-2.306.02-1.267-.936-2.306-2.12-2.306zm7.583 0c-1.184 0-2.12 1.038-2.12 2.305 0 1.267.956 2.306 2.12 2.306 1.184 0 2.119-1.039 2.119-2.306 0-1.267-.935-2.306-2.12-2.306z" fill="#7289DA" />
    </symbol>
  </defs>
  <use href="#__discord-classic__"/>
</svg>