<svg xmlns="http://www.w3.org/2000/svg" xmlns:xlink="http://www.w3.org/1999/xlink">
  <defs>
    <symbol viewBox="0 0 32 32" id="__gamepad2__">
      <script></script>
      <path id="__gamepad2___XMLID_2599_" d="M28.903 13.632C28.297 9.253 24.661 6 20.374 6h-8.748c-4.287 0-7.922 3.253-8.529 7.632C3.028 14.131 2 21.376 2 21.88 2 24.155 3.788 26 5.993 26c1.513 0 2.895-.882 3.572-2.278L12 19h8l2.435 4.722C23.111 25.118 24.494 26 26.007 26 28.212 26 30 24.155 30 21.88c0-.504-1.028-7.749-1.097-8.248zM22 9a1.333 1.333 0 1 1 0 2.667A1.333 1.333 0 0 1 22 9zm-9 5h-2v2H9v-2H7v-2h2v-2h2v2h2zm6.333.333a1.333 1.333 0 1 1 0-2.667 1.333 1.333 0 0 1 0 2.667zM22 17a1.333 1.333 0 1 1 0-2.667A1.333 1.333 0 0 1 22 17zm2.667-2.667a1.333 1.333 0 1 1 0-2.667 1.333 1.333 0 0 1 0 2.667z" fill="#fff" data-original="#000000" />
    </symbol>
  </defs>
  <use href="#__gamepad2__"/>
</svg>