<svg xmlns="http://www.w3.org/2000/svg" xmlns:xlink="http://www.w3.org/1999/xlink">
  <defs>
    <symbol fill="none" viewBox="0 0 131 145" id="__K__">
      <path fill-rule="evenodd" clip-rule="evenodd" d="M39.517 17.585l-4.796 105.242 27.85 9.347 2.797-51.997 13.274 9.944 1.028 42.001 16.014 1.758 7.829-15.307.43-34.128-13.67-16.229 13.706-14.003-1.245-36.447-20.341 1.017.043 31.313-21.754 15.462.874-37.232-22.039-10.741z" fill="url(#__K___paint0_linear_4932_30686)"/>
      <path d="M35.714 12.237L8.597 38.108 7.255 142.224l36.882 1.037 11.566-10.901-.14 10.861 32.206.603 22.796-23.23-.337-40.197-13.062-11.742 12.146-12.392-1.309-43.655-29.417.931-11.928 9.96.567-.367-31.511-10.895zM61.54 28.303l-.855 37.26L82.421 50.11l.029-31.277 20.241-1.05 1.216 36.35-13.666 14.058 13.65 16.283-.44 34.081-21.521 13.207.02-45.136-21.137-16.567-.876 53.366-18.554-13.637-1.808-92.07L61.54 28.303z" fill="#0B0D15"/>
      <path fill-rule="evenodd" clip-rule="evenodd" d="M36.64 19.956l-.372 95.757-22.818 18.254.771-93.212 22.418-20.8zm-4.935 11.042L18.014 43.169c-.433 10.939-.88 82.415-.88 82.415l14.732-11.702-.16-82.884z" fill="url(#__K___paint1_linear_4932_30686)"/>
      <path d="M44.333 107.227l-3.527-21.876.577 24.435 18.813 13.738.551-52.173-4.2 43.778-12.214-7.902zM81.925 131.712l.05-45.043 3.876 37.759 14.158-8.973 3.905-30.905-.452 34.012-21.537 13.15z" fill="#A3CAFF"/>
      <defs/>
    </symbol>
    <linearGradient id="__K___paint0_linear_4932_30686" x1="89.873" y1="5.376" x2="18.167" y2="253.712" gradientUnits="userSpaceOnUse">
      <stop stop-color="#E9F2FF"/>
      <stop offset=".276" stop-color="#E9F2FF"/>
      <stop offset="1" stop-color="#368CFE"/>
    </linearGradient>
    <linearGradient id="__K___paint1_linear_4932_30686" x1="35.657" y1="15.693" x2="7.542" y2="149.856" gradientUnits="userSpaceOnUse">
      <stop offset="0" stop-color="#FFB914"/>
      <stop offset="1" stop-color="#F55713" stop-opacity=".4"/>
    </linearGradient>
  </defs>
  <use href="#__K__" x="0" y="0"/>
</svg>
