<svg xmlns="http://www.w3.org/2000/svg" xmlns:xlink="http://www.w3.org/1999/xlink">
  <defs>
    <symbol fill="none" viewBox="0 0 30 30" id="__loading__">
      <path d="M7.183 9.601l1.433 1.72.605.725.26-.909 2-7 .212-.74-.764.108-7 1-.887.127.574.688 1.602 1.923A12.435 12.435 0 0 0 2.5 15c0 6.892 5.608 12.5 12.5 12.5S27.5 21.892 27.5 15c0-6.89-5.607-12.498-12.497-12.5a1.5 1.5 0 1 0 0 3A9.485 9.485 0 0 1 24.5 15c0 5.259-4.242 9.5-9.5 9.5A9.485 9.485 0 0 1 5.5 15c0-2.01.622-3.867 1.683-5.399z" fill="#fff" stroke="#000" />
      <path d="M14.993 3.5H15c6.34 0 11.5 5.16 11.5 11.5S21.34 26.5 15 26.5 3.5 21.34 3.5 15c0-2.833 1.04-5.427 2.748-7.436l.273-.32-.27-.324-1.293-1.552 5.35-.764-1.53 5.35-1.234-1.481L7.151 8l-.383.481A10.447 10.447 0 0 0 4.5 15c0 5.81 4.69 10.5 10.5 10.5S25.5 20.81 25.5 15 20.81 4.5 15 4.5v0h-.007a.5.5 0 1 1 0-1z" fill="#fff" stroke="#fff" />
    </symbol>
  </defs>
  <use href="#__loading__"/>
</svg>