<svg xmlns="http://www.w3.org/2000/svg" xmlns:xlink="http://www.w3.org/1999/xlink">
  <defs>
    <symbol viewBox="0 0 512 512" id="__map-editor__">
      <script></script>
      <g fill="#fff">
        <path d="M511.049 431.609l-13.924-51.968c-2.144-8.001-10.368-12.751-18.371-10.606-8.002 2.144-12.75 10.369-10.606 18.371l7.828 29.216-61.409-35.454v-144L271 309.037v160.167l126.436-63.287 63.541 36.685-29.216 7.829c-8.002 2.144-12.75 10.369-10.606 18.371 2.145 8.005 10.373 12.751 18.371 10.606l51.967-13.924c14.764-3.958 23.513-19.107 19.556-33.875zM97.433 381.167l-61.409 35.455 7.828-29.216c2.144-8.002-2.604-16.227-10.606-18.371-8.005-2.145-16.227 2.605-18.371 10.606L.951 431.609c-3.956 14.765 4.789 29.917 19.557 33.873l51.968 13.925c8.005 2.145 16.228-2.608 18.371-10.606 2.144-8.002-2.604-16.227-10.606-18.371l-29.216-7.829 63.54-36.685L241 469.203V309.037L97.433 237.168zM270.979 150.256V78.034l21.388 21.387c5.857 5.857 15.355 5.858 21.212 0 5.858-5.858 5.858-15.355 0-21.212l-38.043-38.043c-10.783-10.784-28.331-10.784-39.113 0L198.38 78.209c-5.858 5.858-5.858 15.355 0 21.212 5.857 5.858 15.355 5.858 21.212 0l21.388-21.387v72.238l-125.036 62.607c6.923 3.462 133.024 66.597 140.057 70.119 7.034-3.521 133.134-66.657 140.057-70.119z" data-original="#000000" />
      </g>
    </symbol>
  </defs>
  <use href="#__map-editor__"/>
</svg>