<svg xmlns="http://www.w3.org/2000/svg" xmlns:xlink="http://www.w3.org/1999/xlink">
  <defs>
    <symbol viewBox="0 0 426.667 426.667" id="__market__">
      <script></script>
      <path d="M362.667 0H64L0 128v42.667c0 23.467 19.2 42.667 42.667 42.667 23.467 0 42.667-19.2 42.667-42.667 0 23.467 19.2 42.667 42.667 42.667s42.667-19.2 42.667-42.667c0 23.467 19.2 42.667 42.667 42.667S256 194.133 256 170.667c0 23.467 19.2 42.667 42.667 42.667 23.467 0 42.667-19.2 42.667-42.667 0 23.467 19.2 42.667 42.667 42.667s42.667-19.2 42.667-42.667V128L362.667 0zM384 256c-14.933 0-29.867-4.267-42.667-10.667-12.8 6.4-27.733 10.667-42.667 10.667S268.8 251.733 256 245.333c-12.8 6.4-27.733 10.667-42.667 10.667s-29.867-4.267-42.667-10.667C157.867 251.733 142.933 256 128 256c-14.933 0-29.867-4.267-42.667-10.667C72.533 251.733 57.6 256 42.667 256c-6.4 0-14.933-2.133-21.333-2.133v172.8h149.333V320H256v106.667h149.333v-172.8c-6.4 0-14.933 2.133-21.333 2.133zM128 384H64v-64h64v64zm234.667 0h-64v-64h64v64z" fill="#fff" data-original="#000000" />
    </symbol>
  </defs>
  <use href="#__market__"/>
</svg>