<svg xmlns="http://www.w3.org/2000/svg" xmlns:xlink="http://www.w3.org/1999/xlink">
  <defs>
    <symbol viewBox="0 0 468.189 468.189" id="__market2__">
      <script></script>
      <path d="M90.223 247.972c30.068 0 56.55-14.83 72.9-37.541 15.755 22.663 41.895 37.541 71.544 37.541 29.572 0 55.692-14.801 71.461-37.365 16.254 22.602 42.744 37.365 72.656 37.365 57.376 0 100.771-55.601 86.753-111.255l-27.354-108.6C434.028 11.617 419.227.094 402.198.094H65.784c-17.029 0-31.825 11.523-35.981 28.024L2.625 136.071c-7.754 30.786 2.438 57.614 20.438 82.039v212.914c0 20.44 16.503 37.069 36.962 37.069h348.069c20.458 0 36.969-16.63 36.969-37.069V292.943c0-8.957-7.535-16.218-16.5-16.218s-16.5 7.26-16.5 16.218v138.082c0 2.556-1.412 5.069-3.969 5.069H306.063V309.431c0-8.957-7.28-16.337-16.245-16.337H178.31c-8.965 0-16.246 7.379-16.246 16.337v126.663H60.025c-2.557 0-3.962-2.514-3.962-5.069V241.162c10 4.45 22.097 6.81 34.16 6.81zm231.84-215.878h80.134c2.129 0 3.978 1.658 4.498 3.72l27.349 108.707c8.893 35.314-18.632 70.96-55.128 70.96-31.434 0-56.853-25.511-56.853-56.936zm-142 0h110v126.451c0 30.529-23.885 56.991-55.061 56.991-31.687 0-54.939-26.758-54.939-57.509zm15 294h78v110h-78zM34.081 143.986l27.196-108.17c.52-2.063 2.379-3.721 4.507-3.721h81.279v125.933c0 31.697-25.611 57.486-57.312 57.508-36.883-.023-64.672-35.803-55.67-71.55z" fill="#fff" data-original="#000000" />
    </symbol>
  </defs>
  <use href="#__market2__"/>
</svg>