<svg xmlns="http://www.w3.org/2000/svg" xmlns:xlink="http://www.w3.org/1999/xlink">
  <defs>
    <symbol fill="none" viewBox="0 0 35 34" id="__reload-gun__">
      <g opacity=".7" fill="#fff">
        <path d="M14.128 31.88l3.898-3.156.9.774c.261.224.255.63-.012.846L15.5 33.108a.551.551 0 0 1-.837-.178l-.536-1.05zM6.063 21.786L9.86 18.71l7.805 9.639-3.797 3.075zM9.494 18.222l-3.816 3.09-.713-1.478 3.231-2.617 1.298 1.005zM3.152 14.588a.215.215 0 0 1 .307-.249l4.375 2.331a.172.172 0 0 1 .027.285l-3.065 2.483a.172.172 0 0 1-.273-.086l-1.371-4.764zM21.006 26.148l3.897-3.156.901.775c.261.224.255.63-.012.846l-3.413 2.763a.551.551 0 0 1-.838-.178l-.535-1.05zM12.94 16.055l3.797-3.075 7.806 9.64-3.797 3.074zM16.372 12.49l-3.816 3.09-.713-1.478 3.231-2.616 1.298 1.005zM10.03 8.856a.215.215 0 0 1 .307-.248l4.375 2.33a.172.172 0 0 1 .027.286l-3.065 2.482a.172.172 0 0 1-.273-.086L10.03 8.856zM29.03 20.416l3.898-3.156.9.774c.261.225.255.63-.012.847l-3.412 2.763a.551.551 0 0 1-.838-.178l-.536-1.05zM20.965 10.322l3.797-3.075 7.805 9.639-3.797 3.075zM24.396 6.758l-3.816 3.09-.713-1.478L23.1 5.753l1.297 1.005zM18.054 3.124a.215.215 0 0 1 .308-.249l4.375 2.331a.172.172 0 0 1 .027.286l-3.066 2.482a.172.172 0 0 1-.273-.086l-1.37-4.764z" />
      </g>
    </symbol>
  </defs>
  <use href="#__reload-gun__"/>
</svg>