<svg xmlns="http://www.w3.org/2000/svg" xmlns:xlink="http://www.w3.org/1999/xlink">
  <defs>
    <symbol viewBox="0 0 63 63" id="__rotate__">
      <path d="M7.567 34.405a24.927 24.927 0 0 1-.184-2.905c0-13.215 10.902-24.117 24.117-24.117 6.164 0 11.935 2.485 16.18 6.361l-2.128 2.166c-.48.48-.664 1.181-.48 1.846a1.931 1.931 0 0 0 1.403 1.255c.371.074 12.577 4.007 11.8 3.851.988.33 2.45-.725 2.178-2.178-.075-.372-2.777-13.93-2.621-13.154-.148-.664-.628-1.218-1.292-1.402a1.844 1.844 0 0 0-1.809.48l-1.808 1.771C47.348 3.175 39.695 0 31.5 0 14.187 0 0 14.187 0 31.5v.073c0 1.041.048 1.845.103 2.46a1.845 1.845 0 0 0 1.477 1.644l3.792.758a1.847 1.847 0 0 0 2.195-2.03zM61.431 27.32l-3.803-.775a1.847 1.847 0 0 0-2.201 2.032c.132 1.077.19 2.124.19 2.923 0 13.215-10.901 24.117-24.117 24.117-6.164 0-11.936-2.485-16.18-6.398l2.128-2.13c.48-.479.664-1.18.48-1.845a1.93 1.93 0 0 0-1.403-1.255c-.371-.075-12.577-4.008-11.8-3.851-.627-.11-1.255.074-1.66.516-.444.406-.629 1.07-.518 1.661l2.621 13.031c.147.665.628 1.218 1.292 1.403.77.193 1.414-.04 1.809-.48l1.772-1.772C15.614 59.702 23.268 63 31.5 63 48.813 63 63 48.812 63 31.5v-.111c0-.818-.03-1.621-.098-2.42a1.845 1.845 0 0 0-1.47-1.65z" />
    </symbol>
  </defs>
  <use href="#__rotate__"/>
</svg>