<svg xmlns="http://www.w3.org/2000/svg" xmlns:xlink="http://www.w3.org/1999/xlink">
  <defs>
    <symbol fill="none" viewBox="0 0 21 21" id="__skull-headshot__">
      <path d="M15 8.5L.76 11.719v3.936c0 .18.085.35.229.459L4.1 18.476v1.948c0 .319.258.576.576.576h.463a.575.575 0 0 0 .575-.576v-.79a.365.365 0 1 1 .73 0v.79c0 .319.257.576.575.576h.02a.575.575 0 0 0 .575-.576v-.79c0-.202.164-.365.365-.365h.038c.202 0 .365.163.365.365v.79c0 .319.257.576.576.576h.019a.575.575 0 0 0 .576-.576v-.79a.365.365 0 1 1 .729 0v.79c0 .319.257.576.576.576h.464a.575.575 0 0 0 .576-.576v-1.95l3.113-2.362a.575.575 0 0 0 .228-.459v-3.412C15.238 8.243 15 8.5 15 8.5zM4.973 15.71a1.997 1.997 0 0 1 0-3.991 1.997 1.997 0 0 1 0 3.992zm3.594 1.469H7.433a.346.346 0 0 1-.303-.512l.568-1.031a.345.345 0 0 1 .604 0l.569 1.03a.347.347 0 0 1-.304.513zm2.459-1.468a1.997 1.997 0 0 1 0-3.992 1.997 1.997 0 0 1 0 3.992zM1 7.243C1 3.243 4.241.002 8.24 0a7.246 7.246 0 0 1 6.566 4.19L1 7.243z" fill="#fff" />
      <path d="M14 5.517l3.873-1.001 2.231.402L18.32 6.24 14.445 7.24 14 5.517z" fill="#FFB914" />
    </symbol>
  </defs>
  <use href="#__skull-headshot__"/>
</svg>