<svg xmlns="http://www.w3.org/2000/svg" xmlns:xlink="http://www.w3.org/1999/xlink">
  <defs>
    <symbol viewBox="0 0 16 16" id="__skull__">
      <path d="M7.999 0a7.243 7.243 0 0 0-7.24 7.243v3.412c0 .18.085.35.23.459L4.1 13.476v1.948c0 .319.257.576.576.576h.462a.575.575 0 0 0 .576-.576v-.79a.364.364 0 1 1 .73 0v.79c0 .319.256.576.575.576h.02a.575.575 0 0 0 .575-.576v-.79c0-.202.163-.365.365-.365h.038c.202 0 .365.163.365.365v.79c0 .319.257.576.575.576h.02a.575.575 0 0 0 .575-.576v-.79a.364.364 0 1 1 .73 0v.79c0 .319.257.576.575.576h.465a.575.575 0 0 0 .575-.576v-1.95l3.113-2.362a.575.575 0 0 0 .229-.459V7.241A7.245 7.245 0 0 0 7.999 0zM4.972 10.71a1.997 1.997 0 0 1 0-3.991 1.997 1.997 0 0 1 0 3.992zm3.595 1.469H7.433a.346.346 0 0 1-.304-.513l.569-1.03a.345.345 0 0 1 .604 0l.568 1.03a.347.347 0 0 1-.303.513zm2.458-1.468a1.997 1.997 0 0 1 0-3.992 1.997 1.997 0 0 1 0 3.992z" />
    </symbol>
  </defs>
  <use href="#__skull__"/>
</svg>