<svg xmlns="http://www.w3.org/2000/svg" xmlns:xlink="http://www.w3.org/1999/xlink">
  <defs>
    <symbol fill="none" viewBox="0 0 27 13" id="__slow-motion__">
      <path opacity=".75" d="M6.428 12.784c3.55 0 6.429-2.86 6.429-6.39 0-3.528-2.878-6.389-6.429-6.389C2.878.005 0 2.866 0 6.395c0 3.529 2.878 6.39 6.428 6.39z" fill="#fff" />
      <path opacity=".75" d="M14.522 13C17.547 13 20 10.09 20 6.5S17.547 0 14.522 0c-1.088 0-1.67.175-2.522.822 0 0 2.01 1.303 2.01 5.678 0 4.376-2.01 5.665-2.01 5.665.852.648 1.434.835 2.522.835zM22.206 13C24.854 13 27 10.09 27 6.5S24.854 0 22.206 0c-.95 0-1.46.175-2.206.822 0 0 1.758 1.303 1.758 5.678 0 4.376-1.758 5.665-1.758 5.665.745.648 1.255.835 2.206.835z" fill="#fff" />
    </symbol>
  </defs>
  <use href="#__slow-motion__"/>
</svg>