<svg xmlns="http://www.w3.org/2000/svg" xmlns:xlink="http://www.w3.org/1999/xlink">
  <defs>
    <symbol viewBox="0 0 512 512" id="__store__">
      <defs id="__store___defs20">
        <script id="__store___script2"></script>
      </defs>
      <path id="__store___rect847" fill="#948f6b" stroke="#ffce54" stroke-width="1.038" stroke-linecap="square" stroke-linejoin="round" d="M2358.814 2028.725h761.374v584.282h-761.374z" />
      <path d="M196.1 154v-32.05c0-33.057 26.894-59.95 59.95-59.95C289.106 62 316 88.894 316 121.95V154h30v-32.05C346 72.352 305.648 32 256.05 32c-49.598 0-89.95 40.352-89.95 89.95V154z" fill="#fff" data-original="#000000" id="__store___path4" />
      <g id="__store___g10">
        <path d="M353.187 286.265A34.889 34.889 0 0 0 318.659 257H193.396a34.89 34.89 0 0 0-34.524 29.246l-16.569 99.419v.001C140.433 396.878 149.055 407 160.48 407h.753c6.454 0 12.262-3.586 15.155-9.358l21.241-42.364a15 15 0 0 1 13.409-8.277h90c5.682 0 10.876 3.21 13.416 8.292l20.791 41.582C338.369 403.12 344.647 407 351.63 407c11.331 0 19.929-10.125 18.07-21.319zM210.939 317c-8.284 0-15-6.716-15-15 0-8.284 6.716-15 15-15 8.284 0 15 6.716 15 15 0 8.284-6.716 15-15 15zm90 0c-8.284 0-15-6.716-15-15 0-8.284 6.716-15 15-15 8.284 0 15 6.716 15 15 0 8.284-6.716 15-15 15z" fill="#fff" data-original="#000000" id="__store___path6" />
        <path d="M466 152H46c-8.284 0-15 6.716-15 15v270c0 41.355 33.645 75 75 75h300c41.355 0 75-33.645 75-75V167c0-8.284-6.716-15-15-15zM351.63 437c-18.42 0-34.979-10.234-43.217-26.71L291.769 377h-71.471l-17.091 34.088C195.193 427.071 179.109 437 161.233 437h-.753c-29.97 0-52.677-26.836-47.771-56.268l16.569-99.418C134.525 249.843 161.49 227 193.396 227H318.66c31.923 0 58.891 22.856 64.121 54.349l16.514 99.416C404.18 410.166 381.506 437 351.63 437z" fill="#fff" data-original="#000000" id="__store___path8" />
      </g>
    </symbol>
  </defs>
  <use href="#__store__"/>
</svg>